<svg xmlns="http://www.w3.org/2000/svg" viewBox="0 0 900 500" font-family="Inter, system-ui, sans-serif">
  <defs><linearGradient id="bg" x1="0" x2="0" y1="0" y2="1"><stop offset="0%" stop-color="#0F1422"/><stop offset="100%" stop-color="#070B14"/></linearGradient></defs>
  <rect width="900" height="500" fill="url(#bg)"/>
  <text x="450" y="40" fill="#F0B429" font-size="22" font-weight="700" text-anchor="middle">Rule of Alternation — Waves 2 &amp; 4 Don't Repeat</text>
  <text x="450" y="62" fill="#9AA0A8" font-size="13" text-anchor="middle">If Wave 2 is a sharp zigzag, Wave 4 will be a sideways flat/triangle — and vice versa</text>
  <g transform="translate(80, 110)">
    <rect width="340" height="300" rx="14" fill="rgba(255,255,255,.025)" stroke="rgba(255,255,255,.1)"/>
    <text x="170" y="32" fill="#fff" font-size="13" font-weight="700" text-anchor="middle">If W2 = SHARP zigzag</text>
    <path d="M 30 100 L 80 230 L 120 180 L 160 250" fill="none" stroke="#fff" stroke-width="2"/>
    <text x="160" y="270" fill="#F0B429" font-size="11" font-weight="700" text-anchor="middle">W2 deep, fast</text>
    <text x="170" y="200" fill="#9AA0A8" font-size="10" text-anchor="middle">→ expect W4 SHALLOW &amp; SIDEWAYS</text>
    <path d="M 200 130 L 230 170 L 260 130 L 290 170 L 310 145" fill="none" stroke="#10B981" stroke-width="2"/>
    <text x="255" y="195" fill="#10B981" font-size="11" font-weight="700" text-anchor="middle">W4 flat/triangle</text>
  </g>
  <g transform="translate(480, 110)">
    <rect width="340" height="300" rx="14" fill="rgba(255,255,255,.025)" stroke="rgba(255,255,255,.1)"/>
    <text x="170" y="32" fill="#fff" font-size="13" font-weight="700" text-anchor="middle">If W2 = SIDEWAYS flat</text>
    <path d="M 30 100 L 80 150 L 110 110 L 140 150 L 160 130" fill="none" stroke="#fff" stroke-width="2"/>
    <text x="100" y="170" fill="#F0B429" font-size="11" font-weight="700" text-anchor="middle">W2 sideways flat</text>
    <text x="170" y="220" fill="#9AA0A8" font-size="10" text-anchor="middle">→ expect W4 SHARP ZIGZAG</text>
    <path d="M 200 130 L 240 230 L 280 180 L 310 250" fill="none" stroke="#EF4444" stroke-width="2"/>
    <text x="270" y="270" fill="#EF4444" font-size="11" font-weight="700" text-anchor="middle">W4 deep, fast</text>
  </g>
  <text x="450" y="470" fill="#F0B429" font-size="12" font-style="italic" text-anchor="middle">Alternation lets you anticipate W4's character before it even starts — invaluable for stop placement</text>
</svg>
