<svg xmlns="http://www.w3.org/2000/svg" viewBox="0 0 900 524" font-family="Inter, system-ui, sans-serif">
  <defs><linearGradient id="bg" x1="0" x2="0" y1="0" y2="1"><stop offset="0%" stop-color="#0F1422"/><stop offset="100%" stop-color="#070B14"/></linearGradient></defs>
  <rect width="900" height="524" fill="url(#bg)"/>
  <text x="450" y="40" fill="#F0B429" font-size="22" font-weight="700" text-anchor="middle">Case Study — SPX 2009-2022 Wave Count</text>
  <text x="450" y="62" fill="#9AA0A8" font-size="13" text-anchor="middle">A textbook 5-wave impulse at Primary degree · 666.79 → 4,818.62 in 13 years</text>
  <g transform="translate(60, 100)">
    <line x1="0" y1="320" x2="780" y2="320" stroke="rgba(255,255,255,.15)"/>
    <path d="M 30 310 L 80 240 L 130 280 L 320 130 L 400 200 L 720 30" fill="none" stroke="#10B981" stroke-width="2.5"/>
    <g font-size="13" font-weight="700" text-anchor="middle">
      <circle cx="30" cy="310" r="7" fill="#9AA0A8"/><text x="30" y="335" fill="#9AA0A8" font-size="9">Mar '09</text>
      <circle cx="80" cy="240" r="7" fill="#10B981"/><text x="80" y="225" fill="#10B981">1</text><text x="80" y="335" fill="#9AA0A8" font-size="9">Apr '11</text>
      <circle cx="130" cy="280" r="7" fill="#F0B429"/><text x="130" y="265" fill="#F0B429">2</text><text x="130" y="335" fill="#9AA0A8" font-size="9">Oct '11</text>
      <circle cx="320" cy="130" r="9" fill="#10B981" stroke="#fff" stroke-width="2"/><text x="320" y="115" fill="#10B981">3</text><text x="320" y="335" fill="#9AA0A8" font-size="9">Jan 2018</text>
      <circle cx="400" cy="200" r="7" fill="#F0B429"/><text x="400" y="185" fill="#F0B429">4</text><text x="400" y="335" fill="#9AA0A8" font-size="9">Mar 2020</text>
      <circle cx="720" cy="30" r="10" fill="#10B981" stroke="#fff" stroke-width="2.5"/><text x="720" y="15" fill="#10B981">5</text><text x="720" y="335" fill="#9AA0A8" font-size="9">4,818 · Jan 2022</text>
    </g>
    <g transform="translate(40, 360)">
      <text x="0" y="0" fill="#9AA0A8" font-size="11">W3 = 2.618× W1 (extended) · W5 = 1.000× W1 · W4 = 38.2% retrace of W3</text>
      <text x="0" y="18" fill="#9AA0A8" font-size="11">Then 2022 = Wave A of larger correction (down ~25%) · 2023-2024 Wave B retrace · 2026 = Wave C unfolding?</text>
    </g>
  </g>
  <text x="450" y="499" fill="#F0B429" font-size="12" font-style="italic" text-anchor="middle">Every Fibonacci target hit within 5% on this Primary-degree count — Elliott on SPX was clean for 13 years</text>
</svg>
