<svg xmlns="http://www.w3.org/2000/svg" viewBox="0 0 900 524" font-family="Inter, system-ui, sans-serif">
  <defs><linearGradient id="bg" x1="0" x2="0" y1="0" y2="1"><stop offset="0%" stop-color="#0F1422"/><stop offset="100%" stop-color="#070B14"/></linearGradient></defs>
  <rect width="900" height="524" fill="url(#bg)"/>
  <text x="450" y="40" fill="#F0B429" font-size="22" font-weight="700" text-anchor="middle">Case Study — Bitcoin 2018-2025 Wave Count</text>
  <text x="450" y="62" fill="#9AA0A8" font-size="13" text-anchor="middle">Cycle-degree impulse · $3,200 → $108,000+ · the cleanest crypto wave count on record</text>
  <g transform="translate(60, 100)">
    <line x1="0" y1="320" x2="780" y2="320" stroke="rgba(255,255,255,.15)"/>
    <path d="M 30 310 L 90 220 L 150 280 L 350 100 L 440 200 L 700 30" fill="none" stroke="#F0B429" stroke-width="2.5"/>
    <g font-size="13" font-weight="700" text-anchor="middle">
      <circle cx="30" cy="310" r="7" fill="#9AA0A8"/><text x="30" y="335" fill="#9AA0A8" font-size="10">$3,200 · Dec 2018</text>
      <circle cx="90" cy="220" r="7" fill="#10B981"/><text x="90" y="205" fill="#10B981">1</text><text x="90" y="335" fill="#9AA0A8" font-size="9">$13.8K Jun 2019</text>
      <circle cx="150" cy="280" r="7" fill="#F0B429"/><text x="150" y="265" fill="#F0B429">2</text><text x="150" y="335" fill="#9AA0A8" font-size="9">$3.8K Mar 2020</text>
      <circle cx="350" cy="100" r="9" fill="#10B981" stroke="#fff" stroke-width="2"/><text x="350" y="85" fill="#10B981">3</text><text x="350" y="335" fill="#9AA0A8" font-size="9">$69K Nov 2021</text>
      <circle cx="440" cy="200" r="7" fill="#F0B429"/><text x="440" y="185" fill="#F0B429">4</text><text x="440" y="335" fill="#9AA0A8" font-size="9">$15.5K Nov 2022</text>
      <circle cx="700" cy="30" r="10" fill="#10B981" stroke="#fff" stroke-width="2.5"/><text x="700" y="15" fill="#10B981">5</text><text x="700" y="335" fill="#9AA0A8" font-size="9">$108K Jan 2025</text>
    </g>
    <text x="40" y="370" fill="#9AA0A8" font-size="11">W3 = 7× W1 (parabolic extension typical of crypto) · W5 = 7× W1 (similar extension)</text>
    <text x="40" y="388" fill="#9AA0A8" font-size="11">W2 retraced 78.6% of W1 (deep) · W4 retraced 38.2% of W3 (alternation respected)</text>
  </g>
  <text x="450" y="499" fill="#F0B429" font-size="12" font-style="italic" text-anchor="middle">BTC waves don't follow stock Fib ratios — extensions are much larger. But the 5-3 structure holds.</text>
</svg>
