<svg xmlns="http://www.w3.org/2000/svg" viewBox="0 0 900 520" font-family="Inter, system-ui, sans-serif">
  <defs><linearGradient id="bg5" x1="0" x2="0" y1="0" y2="1"><stop offset="0%" stop-color="#0F1422"/><stop offset="100%" stop-color="#070B14"/></linearGradient></defs>
  <rect width="900" height="520" fill="url(#bg5)"/>
  <text x="450" y="40" fill="#F0B429" font-size="22" font-weight="700" text-anchor="middle">The 4 Phases of the Market Cycle</text>
  <text x="450" y="62" fill="#9AA0A8" font-size="13" text-anchor="middle">Every asset, every timeframe, every era. The names change. The pattern doesn't.</text>

  <!-- Schematic price curve -->
  <g transform="translate(80, 110)">
    <path d="M 0 220 L 80 220 L 100 215 L 130 230 L 160 218 L 190 232 L 210 220 L 250 200 L 320 130 L 400 70 L 440 90 L 480 60 L 510 80 L 560 65 L 620 90 L 680 130 L 740 200 L 760 220" fill="none" stroke="#fff" stroke-width="2.5"/>

    <!-- Phase 1 — Accumulation -->
    <rect x="0" y="200" width="220" height="80" fill="rgba(59,130,246,.07)" stroke="rgba(59,130,246,.4)" stroke-dasharray="4,3"/>
    <text x="110" y="190" fill="#3B82F6" font-size="12" font-weight="700" text-anchor="middle">1. ACCUMULATION</text>
    <text x="110" y="305" fill="#9AA0A8" font-size="11" text-anchor="middle">Smart money buys quietly</text>
    <text x="110" y="320" fill="#9AA0A8" font-size="11" text-anchor="middle">from exhausted sellers</text>

    <!-- Phase 2 — Markup -->
    <rect x="220" y="50" width="190" height="240" fill="rgba(16,185,129,.05)" stroke="rgba(16,185,129,.4)" stroke-dasharray="4,3"/>
    <text x="315" y="40" fill="#10B981" font-size="12" font-weight="700" text-anchor="middle">2. MARKUP</text>
    <text x="315" y="305" fill="#9AA0A8" font-size="11" text-anchor="middle">Trend climbs on pullbacks</text>
    <text x="315" y="320" fill="#9AA0A8" font-size="11" text-anchor="middle">with no supply</text>

    <!-- Phase 3 — Distribution -->
    <rect x="410" y="40" width="230" height="80" fill="rgba(240,180,41,.07)" stroke="rgba(240,180,41,.4)" stroke-dasharray="4,3"/>
    <text x="525" y="30" fill="#F0B429" font-size="12" font-weight="700" text-anchor="middle">3. DISTRIBUTION</text>
    <text x="525" y="135" fill="#9AA0A8" font-size="11" text-anchor="middle">Smart money sells quietly</text>
    <text x="525" y="150" fill="#9AA0A8" font-size="11" text-anchor="middle">to euphoric retail</text>

    <!-- Phase 4 — Markdown -->
    <rect x="640" y="120" width="120" height="170" fill="rgba(239,68,68,.05)" stroke="rgba(239,68,68,.4)" stroke-dasharray="4,3"/>
    <text x="700" y="110" fill="#EF4444" font-size="12" font-weight="700" text-anchor="middle">4. MARKDOWN</text>
    <text x="700" y="305" fill="#9AA0A8" font-size="11" text-anchor="middle">Trend collapses on rallies</text>
    <text x="700" y="320" fill="#9AA0A8" font-size="11" text-anchor="middle">with no demand</text>
  </g>

  <!-- Bottom: smart money behavior per phase -->
  <g transform="translate(80, 450)">
    <rect width="740" height="50" rx="10" fill="rgba(240,180,41,.06)" stroke="rgba(240,180,41,.3)"/>
    <text x="370" y="22" fill="#F0B429" font-size="13" font-weight="700" text-anchor="middle">Knowing your phase = knowing your strategy.</text>
    <text x="370" y="40" fill="#9AA0A8" font-size="11" text-anchor="middle">Mean-revert in 1 and 3. Trend-follow in 2 and 4. Never the other way around.</text>
  </g>
</svg>
