<svg xmlns="http://www.w3.org/2000/svg" viewBox="0 0 900 480" font-family="Inter, system-ui, sans-serif">
  <defs><linearGradient id="bg6" x1="0" x2="0" y1="0" y2="1"><stop offset="0%" stop-color="#0F1422"/><stop offset="100%" stop-color="#070B14"/></linearGradient></defs>
  <rect width="900" height="480" fill="url(#bg6)"/>
  <text x="450" y="40" fill="#F0B429" font-size="22" font-weight="700" text-anchor="middle">Price Can Lie — Volume Cannot</text>
  <text x="450" y="62" fill="#9AA0A8" font-size="13" text-anchor="middle">The same breakout looks identical on price. Volume tells you which one to trust.</text>

  <g transform="translate(60, 100)">
    <rect width="360" height="300" rx="12" fill="rgba(239,68,68,.05)" stroke="rgba(239,68,68,.35)"/>
    <text x="180" y="30" fill="#EF4444" font-size="13" font-weight="700" text-anchor="middle">BREAKOUT ON LOW VOLUME</text>
    <path d="M 40 180 L 90 170 L 140 175 L 190 150 L 240 120 L 300 90" fill="none" stroke="#fff" stroke-width="2.5"/>
    <line x1="40" y1="140" x2="320" y2="140" stroke="rgba(255,255,255,.2)" stroke-dasharray="4,3"/>
    <text x="44" y="135" fill="#9AA0A8" font-size="9">resistance</text>
    <g transform="translate(40, 210)">
      <rect x="0" y="40" width="14" height="20" fill="#3B82F6" opacity=".5"/>
      <rect x="40" y="35" width="14" height="25" fill="#3B82F6" opacity=".5"/>
      <rect x="80" y="42" width="14" height="18" fill="#3B82F6" opacity=".5"/>
      <rect x="120" y="30" width="14" height="30" fill="#3B82F6" opacity=".5"/>
      <rect x="160" y="38" width="14" height="22" fill="#3B82F6" opacity=".5"/>
      <rect x="210" y="44" width="14" height="16" fill="#EF4444" opacity=".7"/>
      <text x="217" y="78" fill="#EF4444" font-size="9" text-anchor="middle">thin</text>
    </g>
    <text x="180" y="290" fill="#EF4444" font-size="11" font-weight="700" text-anchor="middle">No demand behind the move → FAILS</text>
  </g>

  <g transform="translate(480, 100)">
    <rect width="360" height="300" rx="12" fill="rgba(16,185,129,.05)" stroke="rgba(16,185,129,.35)"/>
    <text x="180" y="30" fill="#10B981" font-size="13" font-weight="700" text-anchor="middle">BREAKOUT ON HIGH VOLUME</text>
    <path d="M 40 180 L 90 170 L 140 175 L 190 150 L 240 120 L 300 90" fill="none" stroke="#fff" stroke-width="2.5"/>
    <line x1="40" y1="140" x2="320" y2="140" stroke="rgba(255,255,255,.2)" stroke-dasharray="4,3"/>
    <text x="44" y="135" fill="#9AA0A8" font-size="9">resistance</text>
    <g transform="translate(40, 210)">
      <rect x="0" y="40" width="14" height="20" fill="#3B82F6" opacity=".5"/>
      <rect x="40" y="35" width="14" height="25" fill="#3B82F6" opacity=".5"/>
      <rect x="80" y="42" width="14" height="18" fill="#3B82F6" opacity=".5"/>
      <rect x="120" y="30" width="14" height="30" fill="#3B82F6" opacity=".5"/>
      <rect x="160" y="38" width="14" height="22" fill="#3B82F6" opacity=".5"/>
      <rect x="210" y="10" width="14" height="50" fill="#10B981"/>
      <text x="217" y="78" fill="#10B981" font-size="9" text-anchor="middle">surge</text>
    </g>
    <text x="180" y="290" fill="#10B981" font-size="11" font-weight="700" text-anchor="middle">Real demand confirms → HOLDS</text>
  </g>

  <text x="450" y="460" fill="#F0B429" font-size="12" font-style="italic" text-anchor="middle">Price is the question. Volume is the answer. Never read one without the other.</text>
</svg>
