<svg xmlns="http://www.w3.org/2000/svg" viewBox="0 0 900 500" font-family="Inter, system-ui, sans-serif">
  <defs><linearGradient id="bg6" x1="0" x2="0" y1="0" y2="1"><stop offset="0%" stop-color="#0F1422"/><stop offset="100%" stop-color="#070B14"/></linearGradient></defs>
  <rect width="900" height="500" fill="url(#bg6)"/>
  <text x="450" y="40" fill="#F0B429" font-size="22" font-weight="700" text-anchor="middle">The 3 PM Ramp — Why SPX Drifts Up Into the Close</text>
  <text x="450" y="62" fill="#9AA0A8" font-size="13" text-anchor="middle">Charm decay forces dealers to buy SPX futures as 0DTE puts lose delta · self-reinforcing rally</text>

  <g transform="translate(60, 110)">
    <line x1="0" y1="240" x2="780" y2="240" stroke="rgba(255,255,255,.15)"/>
    <text x="-10" y="244" fill="#9AA0A8" font-size="10" text-anchor="end">SPX</text>

    <path d="M 30 220 L 100 215 L 170 230 L 240 225 L 310 218 L 380 210 L 450 195 L 520 170 L 590 140 L 660 110 L 730 85" fill="none" stroke="#10B981" stroke-width="2.5"/>

    <g transform="translate(380, 290)">
      <line x1="0" y1="-80" x2="0" y2="20" stroke="#F0B429" stroke-width="1.5" stroke-dasharray="3,3"/>
      <text x="0" y="40" fill="#F0B429" font-size="11" font-weight="700" text-anchor="middle">14:30</text>
      <text x="0" y="56" fill="#9AA0A8" font-size="10" text-anchor="middle">ramp starts</text>
    </g>

    <g transform="translate(580, 290)">
      <line x1="0" y1="-180" x2="0" y2="20" stroke="#F0B429" stroke-width="1.5" stroke-dasharray="3,3"/>
      <text x="0" y="40" fill="#F0B429" font-size="11" font-weight="700" text-anchor="middle">15:30</text>
      <text x="0" y="56" fill="#9AA0A8" font-size="10" text-anchor="middle">acceleration</text>
    </g>

    <g transform="translate(60, 380)">
      <rect width="680" height="100" rx="10" fill="rgba(240,180,41,.06)" stroke="rgba(240,180,41,.3)"/>
      <text x="20" y="28" fill="#F0B429" font-size="13" font-weight="700">Mechanism</text>
      <text x="20" y="50" fill="#9AA0A8" font-size="11">1. Hours before close, ATM/OTM puts lose delta exposure rapidly (charm)</text>
      <text x="20" y="66" fill="#9AA0A8" font-size="11">2. Dealers were short delta to hedge those puts — they buy SPX futures to unwind</text>
      <text x="20" y="82" fill="#9AA0A8" font-size="11">3. The buying lifts SPX, which further reduces put delta, which forces more buying = feedback loop</text>
    </g>
  </g>
</svg>
