<svg xmlns="http://www.w3.org/2000/svg" viewBox="0 0 900 500" font-family="Inter, system-ui, sans-serif">
  <defs><linearGradient id="bg8" x1="0" x2="0" y1="0" y2="1"><stop offset="0%" stop-color="#0F1422"/><stop offset="100%" stop-color="#070B14"/></linearGradient></defs>
  <rect width="900" height="500" fill="url(#bg8)"/>
  <text x="450" y="40" fill="#F0B429" font-size="22" font-weight="700" text-anchor="middle">0DTE Iron Condor — The Income Trade</text>
  <text x="450" y="62" fill="#9AA0A8" font-size="13" text-anchor="middle">Sell OTM call spread + OTM put spread · profit if SPX stays inside the wings by close</text>

  <g transform="translate(80, 110)">
    <line x1="0" y1="200" x2="740" y2="200" stroke="rgba(255,255,255,.15)"/>
    <line x1="370" y1="0" x2="370" y2="300" stroke="rgba(255,255,255,.1)" stroke-dasharray="3,3"/>

    <path d="M 0 220 L 100 220 L 180 220 L 220 100 L 520 100 L 560 220 L 640 220 L 740 220" fill="none" stroke="#10B981" stroke-width="3"/>

    <line x1="220" y1="0" x2="220" y2="300" stroke="#3B82F6" stroke-width="1" stroke-dasharray="3,2"/>
    <text x="220" y="-5" fill="#3B82F6" font-size="11" font-weight="700" text-anchor="middle">SHORT put 5840</text>

    <line x1="180" y1="0" x2="180" y2="300" stroke="#EF4444" stroke-width="1" stroke-dasharray="3,2"/>
    <text x="180" y="-20" fill="#EF4444" font-size="10" text-anchor="middle">LONG put 5830</text>

    <line x1="520" y1="0" x2="520" y2="300" stroke="#3B82F6" stroke-width="1" stroke-dasharray="3,2"/>
    <text x="520" y="-5" fill="#3B82F6" font-size="11" font-weight="700" text-anchor="middle">SHORT call 5900</text>

    <line x1="560" y1="0" x2="560" y2="300" stroke="#EF4444" stroke-width="1" stroke-dasharray="3,2"/>
    <text x="560" y="-20" fill="#EF4444" font-size="10" text-anchor="middle">LONG call 5910</text>

    <text x="370" y="80" fill="#10B981" font-size="13" font-weight="700" text-anchor="middle">MAX PROFIT zone (+$120)</text>
    <text x="370" y="140" fill="#9AA0A8" font-size="11" text-anchor="middle">SPX between 5840-5900 at close</text>

    <text x="130" y="245" fill="#EF4444" font-size="11" font-weight="700" text-anchor="middle">MAX LOSS</text>
    <text x="130" y="262" fill="#9AA0A8" font-size="10" text-anchor="middle">-$880</text>
    <text x="610" y="245" fill="#EF4444" font-size="11" font-weight="700" text-anchor="middle">MAX LOSS</text>
    <text x="610" y="262" fill="#9AA0A8" font-size="10" text-anchor="middle">-$880</text>

    <text x="0" y="335" fill="#9AA0A8" font-size="10">SPX price at expiry →</text>
  </g>

  <text x="450" y="470" fill="#F0B429" font-size="12" font-style="italic" text-anchor="middle">12% credit on max risk · ~70% win rate when 5-delta wings · risk = 7.3× the credit collected</text>
</svg>
