<svg xmlns="http://www.w3.org/2000/svg" viewBox="0 0 900 520" font-family="Inter, system-ui, sans-serif">
  <defs><linearGradient id="bg9" x1="0" x2="0" y1="0" y2="1"><stop offset="0%" stop-color="#0F1422"/><stop offset="100%" stop-color="#070B14"/></linearGradient></defs>
  <rect width="900" height="520" fill="url(#bg9)"/>
  <text x="450" y="40" fill="#F0B429" font-size="22" font-weight="700" text-anchor="middle">The Gamma Wall — Where Price Wants to Pin</text>
  <text x="450" y="62" fill="#9AA0A8" font-size="13" text-anchor="middle">Largest open interest strike acts as a magnet · dealer hedging gravitates price toward it into close</text>

  <g transform="translate(60, 110)">
    <line x1="0" y1="280" x2="780" y2="280" stroke="rgba(255,255,255,.15)"/>

    <g>
      <rect x="40" y="240" width="50" height="40" fill="#3B82F6" opacity=".5"/>
      <text x="65" y="295" fill="#9AA0A8" font-size="10" text-anchor="middle">5870</text>
      <rect x="110" y="220" width="50" height="60" fill="#3B82F6" opacity=".5"/>
      <text x="135" y="295" fill="#9AA0A8" font-size="10" text-anchor="middle">5875</text>
      <rect x="180" y="180" width="50" height="100" fill="#3B82F6" opacity=".6"/>
      <text x="205" y="295" fill="#9AA0A8" font-size="10" text-anchor="middle">5880</text>
      <rect x="250" y="140" width="50" height="140" fill="#3B82F6" opacity=".7"/>
      <text x="275" y="295" fill="#9AA0A8" font-size="10" text-anchor="middle">5885</text>
      <rect x="320" y="100" width="50" height="180" fill="#3B82F6" opacity=".8"/>
      <text x="345" y="295" fill="#9AA0A8" font-size="10" text-anchor="middle">5890</text>
      <rect x="390" y="40" width="50" height="240" fill="#F0B429"/>
      <text x="415" y="295" fill="#F0B429" font-size="11" font-weight="700" text-anchor="middle">5895 ←</text>
      <text x="415" y="32" fill="#F0B429" font-size="11" font-weight="700" text-anchor="middle">90K OI</text>
      <rect x="460" y="100" width="50" height="180" fill="#3B82F6" opacity=".8"/>
      <text x="485" y="295" fill="#9AA0A8" font-size="10" text-anchor="middle">5900</text>
      <rect x="530" y="160" width="50" height="120" fill="#3B82F6" opacity=".7"/>
      <text x="555" y="295" fill="#9AA0A8" font-size="10" text-anchor="middle">5905</text>
      <rect x="600" y="200" width="50" height="80" fill="#3B82F6" opacity=".6"/>
      <text x="625" y="295" fill="#9AA0A8" font-size="10" text-anchor="middle">5910</text>
      <rect x="670" y="230" width="50" height="50" fill="#3B82F6" opacity=".5"/>
      <text x="695" y="295" fill="#9AA0A8" font-size="10" text-anchor="middle">5915</text>
    </g>

    <line x1="415" y1="0" x2="415" y2="280" stroke="#F0B429" stroke-width="1.5" stroke-dasharray="4,3"/>

    <text x="0" y="320" fill="#9AA0A8" font-size="11">Open Interest by strike</text>
  </g>

  <g transform="translate(60, 420)">
    <rect width="780" height="80" rx="10" fill="rgba(240,180,41,.06)" stroke="rgba(240,180,41,.3)"/>
    <text x="20" y="28" fill="#F0B429" font-size="13" font-weight="700">Trading the wall</text>
    <text x="20" y="48" fill="#9AA0A8" font-size="11">If SPX above 5895 by 14:30 → expect pin to 5895 (dealers sell SPX) · short SPX or 0DTE put debit</text>
    <text x="20" y="64" fill="#9AA0A8" font-size="11">If SPX below 5895 by 14:30 → expect pull up to 5895 (dealers buy SPX) · long SPX or 0DTE call debit</text>
  </g>
</svg>
