<svg xmlns="http://www.w3.org/2000/svg" viewBox="0 0 900 608" font-family="Inter, system-ui, sans-serif">
  <defs><linearGradient id="bg15" x1="0" x2="0" y1="0" y2="1"><stop offset="0%" stop-color="#0F1422"/><stop offset="100%" stop-color="#070B14"/></linearGradient></defs>
  <rect width="900" height="608" fill="url(#bg15)"/>
  <text x="450" y="40" fill="#F0B429" font-size="22" font-weight="700" text-anchor="middle">The 0DTE Daily Routine — 7 Steps</text>
  <text x="450" y="62" fill="#9AA0A8" font-size="13" text-anchor="middle">A reproducible workflow that separates pros from gamblers · same checklist every session</text>

  <g transform="translate(60, 100)" font-size="11">
    <g><rect width="780" height="62" rx="10" fill="rgba(59,130,246,.05)" stroke="#3B82F6"/><circle cx="30" cy="31" r="16" fill="#1A1F2E" stroke="#3B82F6" stroke-width="2"/><text x="30" y="36" fill="#3B82F6" font-weight="700" text-anchor="middle">1</text><text x="60" y="26" fill="#3B82F6" font-weight="700">07:30 ET · Pre-market scan</text><text x="60" y="46" fill="#9AA0A8">Check overnight gaps · futures positioning · economic calendar · global news</text></g>
    <g transform="translate(0, 72)"><rect width="780" height="62" rx="10" fill="rgba(59,130,246,.05)" stroke="#3B82F6"/><circle cx="30" cy="31" r="16" fill="#1A1F2E" stroke="#3B82F6" stroke-width="2"/><text x="30" y="36" fill="#3B82F6" font-weight="700" text-anchor="middle">2</text><text x="60" y="26" fill="#3B82F6" font-weight="700">08:30 ET · Gamma map</text><text x="60" y="46" fill="#9AA0A8">SpotGamma/Tier1Alpha — identify gamma wall, zero gamma, key strikes</text></g>
    <g transform="translate(0, 144)"><rect width="780" height="62" rx="10" fill="rgba(16,185,129,.05)" stroke="#10B981"/><circle cx="30" cy="31" r="16" fill="#1A1F2E" stroke="#10B981" stroke-width="2"/><text x="30" y="36" fill="#10B981" font-weight="700" text-anchor="middle">3</text><text x="60" y="26" fill="#10B981" font-weight="700">09:30-10:30 ET · NO TRADES</text><text x="60" y="46" fill="#9AA0A8">Open volatility · institutional positioning · let dust settle · watch ONLY</text></g>
    <g transform="translate(0, 216)"><rect width="780" height="62" rx="10" fill="rgba(16,185,129,.05)" stroke="#10B981"/><circle cx="30" cy="31" r="16" fill="#1A1F2E" stroke="#10B981" stroke-width="2"/><text x="30" y="36" fill="#10B981" font-weight="700" text-anchor="middle">4</text><text x="60" y="26" fill="#10B981" font-weight="700">10:30 ET · Iron condor entry</text><text x="60" y="46" fill="#9AA0A8">Sell 5-delta IC if expected range &lt; structural · target 50% credit · stop at 3× credit</text></g>
    <g transform="translate(0, 288)"><rect width="780" height="62" rx="10" fill="rgba(240,180,41,.05)" stroke="#F0B429"/><circle cx="30" cy="31" r="16" fill="#1A1F2E" stroke="#F0B429" stroke-width="2"/><text x="30" y="36" fill="#F0B429" font-weight="700" text-anchor="middle">5</text><text x="60" y="26" fill="#F0B429" font-weight="700">12:00-13:00 ET · Vol crush trade window</text><text x="60" y="46" fill="#9AA0A8">If IV spiked from morning news, sell ATM straddle · close before 14:00</text></g>
    <g transform="translate(0, 360)"><rect width="780" height="62" rx="10" fill="rgba(240,180,41,.05)" stroke="#F0B429"/><circle cx="30" cy="31" r="16" fill="#1A1F2E" stroke="#F0B429" stroke-width="2"/><text x="30" y="36" fill="#F0B429" font-weight="700" text-anchor="middle">6</text><text x="60" y="26" fill="#F0B429" font-weight="700">14:30 ET · Directional decision</text><text x="60" y="46" fill="#9AA0A8">If above gamma wall → fade · if below → ride 3pm ramp · stop 15min after entry if wrong</text></g>
    <g transform="translate(0, 432)"><rect width="780" height="62" rx="10" fill="rgba(244,114,182,.05)" stroke="#F472B6"/><circle cx="30" cy="31" r="16" fill="#1A1F2E" stroke="#F472B6" stroke-width="2"/><text x="30" y="36" fill="#F472B6" font-weight="700" text-anchor="middle">7</text><text x="60" y="26" fill="#F472B6" font-weight="700">15:55 ET · CLOSE ALL POSITIONS</text><text x="60" y="46" fill="#9AA0A8">Never hold 0DTE into final 5 min · settlement risk · platform glitches · just don't</text></g>
  </g>
</svg>
