<svg xmlns="http://www.w3.org/2000/svg" viewBox="0 0 900 564" font-family="Inter, system-ui, sans-serif">
  <defs><linearGradient id="bg18" x1="0" x2="0" y1="0" y2="1"><stop offset="0%" stop-color="#0F1422"/><stop offset="100%" stop-color="#070B14"/></linearGradient></defs>
  <rect width="900" height="564" fill="url(#bg18)"/>
  <text x="450" y="40" fill="#F0B429" font-size="22" font-weight="700" text-anchor="middle">Pin Risk — The Catastrophic 0DTE Failure</text>
  <text x="450" y="62" fill="#9AA0A8" font-size="13" text-anchor="middle">SPX settles AT short strike → uncertain assignment → overnight gap risk you cannot hedge</text>

  <g transform="translate(60, 110)">
    <line x1="0" y1="180" x2="780" y2="180" stroke="#F0B429" stroke-width="1.5" stroke-dasharray="4,3"/>
    <text x="33" y="184" fill="#F0B429" font-size="11" text-anchor="end">SHORT call 5895</text>

    <path d="M 30 220 L 100 215 L 170 210 L 240 200 L 310 195 L 380 190 L 450 185 L 520 183 L 590 182 L 660 181 L 730 180" fill="none" stroke="#fff" stroke-width="2.5"/>

    <circle cx="730" cy="180" r="8" fill="#EF4444" stroke="#fff" stroke-width="2"/>
    <text x="730" y="160" fill="#EF4444" font-size="12" font-weight="700" text-anchor="middle">PIN at 5895.05</text>
    <text x="730" y="146" fill="#9AA0A8" font-size="10" text-anchor="middle">$0.05 ITM at 16:00 close</text>

    <g transform="translate(60, 260)">
      <rect width="780" height="180" rx="10" fill="rgba(239,68,68,.06)" stroke="rgba(239,68,68,.4)"/>
      <text x="20" y="28" fill="#EF4444" font-size="13" font-weight="700">What happens at $0.05 ITM</text>
      <text x="20" y="52" fill="#9AA0A8" font-size="11">1. OCC has until 17:30 ET to decide: exercise OR allow OTM expiry</text>
      <text x="20" y="70" fill="#9AA0A8" font-size="11">2. If exercised, you wake up SHORT 100 SPY per contract · Monday gap could be -2%</text>
      <text x="20" y="88" fill="#9AA0A8" font-size="11">3. If NOT exercised, you keep premium but a 50-buyer might still elect to exercise · 50/50</text>
      <text x="20" y="120" fill="#F0B429" font-size="12" font-weight="700">Mitigation</text>
      <text x="20" y="142" fill="#9AA0A8" font-size="11">Close ALL short positions if SPX comes within $1 of strike with 15min left · paying $50</text>
      <text x="20" y="158" fill="#9AA0A8" font-size="11">to flatten beats holding open assignment risk through the weekend</text>
    </g>
  </g>
</svg>
