<svg xmlns="http://www.w3.org/2000/svg" viewBox="0 0 900 500" font-family="Inter, system-ui, sans-serif">
  <defs><linearGradient id="bg" x1="0" x2="0" y1="0" y2="1"><stop offset="0%" stop-color="#0F1422"/><stop offset="100%" stop-color="#070B14"/></linearGradient></defs>
  <rect width="900" height="500" fill="url(#bg)"/>
  <text x="450" y="40" fill="#F0B429" font-size="22" font-weight="700" text-anchor="middle">DD-to-Target Ratio — Risk/Reward of the Eval Itself</text>
  <text x="450" y="62" fill="#9AA0A8" font-size="13" text-anchor="middle">The lower the DD/target ratio, the harder the eval · pick firms with ratio under 1.0 when possible</text>
  <g transform="translate(80, 110)" font-size="12">
    <rect width="740" height="320" rx="12" fill="rgba(255,255,255,.025)" stroke="rgba(255,255,255,.1)"/>
    <line x1="0" y1="40" x2="740" y2="40" stroke="rgba(255,255,255,.1)"/>
    <g font-weight="700"><text x="20" y="28" fill="#F0B429">Firm · Size</text><text x="220" y="28" fill="#F0B429">DD</text><text x="340" y="28" fill="#F0B429">Target</text><text x="460" y="28" fill="#F0B429">Ratio</text><text x="580" y="28" fill="#F0B429">Difficulty</text></g>
    <g fill="#9AA0A8">
      <text x="20" y="70">Apex $50K</text><text x="220" y="70">$2,500</text><text x="340" y="70">$3,000</text><text x="460" y="70" fill="#10B981" font-weight="700">0.83</text><text x="580" y="70" fill="#10B981">Easy</text>
      <text x="20" y="98">Apex $100K</text><text x="220" y="98">$3,000</text><text x="340" y="98">$6,000</text><text x="460" y="98" fill="#10B981" font-weight="700">0.50</text><text x="580" y="98" fill="#10B981">Easy</text>
      <text x="20" y="126">Bulenox $50K</text><text x="220" y="126">$2,000</text><text x="340" y="126">$3,000</text><text x="460" y="126" fill="#10B981" font-weight="700">0.67</text><text x="580" y="126" fill="#10B981">Easy</text>
      <text x="20" y="154">TPT $50K</text><text x="220" y="154">$2,000</text><text x="340" y="154">$3,000</text><text x="460" y="154" fill="#10B981" font-weight="700">0.67</text><text x="580" y="154" fill="#10B981">Easy</text>
      <text x="20" y="182">FTMO $100K</text><text x="220" y="182">$5,000</text><text x="340" y="182">$5,000</text><text x="460" y="182" fill="#F0B429" font-weight="700">1.00</text><text x="580" y="182" fill="#F0B429">Medium</text>
      <text x="20" y="210">FundedNext $100K</text><text x="220" y="210">$5,000</text><text x="340" y="210">$5,000</text><text x="460" y="210" fill="#F0B429" font-weight="700">1.00</text><text x="580" y="210" fill="#F0B429">Medium</text>
      <text x="20" y="238">FundingPips $200K</text><text x="220" y="238">$10,000</text><text x="340" y="238">$10,000</text><text x="460" y="238" fill="#F0B429" font-weight="700">1.00</text><text x="580" y="238" fill="#F0B429">Medium</text>
      <text x="20" y="266">The5ers $50K</text><text x="220" y="266">$3,000</text><text x="340" y="266">$3,000</text><text x="460" y="266" fill="#F0B429" font-weight="700">1.00</text><text x="580" y="266" fill="#F0B429">Medium</text>
    </g>
    <text x="20" y="306" fill="#10B981" font-weight="700" font-size="11">Best beginner picks: Apex $50K (0.83) or Apex $100K (0.50)</text>
  </g>
</svg>
