<svg xmlns="http://www.w3.org/2000/svg" viewBox="0 0 900 500" font-family="Inter, system-ui, sans-serif">
  <defs><linearGradient id="bg" x1="0" x2="0" y1="0" y2="1"><stop offset="0%" stop-color="#0F1422"/><stop offset="100%" stop-color="#070B14"/></linearGradient></defs>
  <rect width="900" height="500" fill="url(#bg)"/>
  <text x="450" y="40" fill="#F0B429" font-size="22" font-weight="700" text-anchor="middle">Best Trading Hours by Asset</text>
  <text x="450" y="62" fill="#9AA0A8" font-size="13" text-anchor="middle">90% of A-grade setups appear in 4 windows · the rest of the session is for damage control</text>
  <g transform="translate(60, 110)" font-size="11">
    <line x1="0" y1="60" x2="780" y2="60" stroke="rgba(255,255,255,.15)"/>
    <g font-size="10" fill="#9AA0A8" text-anchor="middle">
      <text x="0" y="80">00:00</text>
      <text x="195" y="80">06:00</text>
      <text x="390" y="80">12:00</text>
      <text x="585" y="80">18:00</text>
      <text x="780" y="80">24:00</text>
    </g>
    <line x1="0" y1="50" x2="0" y2="70" stroke="#9AA0A8"/>
    <line x1="195" y1="50" x2="195" y2="70" stroke="#9AA0A8"/>
    <line x1="390" y1="50" x2="390" y2="70" stroke="#9AA0A8"/>
    <line x1="585" y1="50" x2="585" y2="70" stroke="#9AA0A8"/>
    <line x1="780" y1="50" x2="780" y2="70" stroke="#9AA0A8"/>

    <g transform="translate(0, 120)">
      <text x="-10" y="20" fill="#fff" font-size="13" font-weight="700" text-anchor="end">NQ/ES</text>
      <rect x="295" y="0" width="65" height="40" rx="4" fill="rgba(16,185,129,.4)" stroke="#10B981"/>
      <text x="327" y="55" fill="#10B981" font-size="9" text-anchor="middle">9:30-10:30</text>
      <rect x="455" y="0" width="65" height="40" rx="4" fill="rgba(16,185,129,.4)" stroke="#10B981"/>
      <text x="487" y="55" fill="#10B981" font-size="9" text-anchor="middle">14:00-15:00</text>
    </g>
    <g transform="translate(0, 200)">
      <text x="-10" y="20" fill="#fff" font-size="13" font-weight="700" text-anchor="end">CL</text>
      <rect x="195" y="0" width="65" height="40" rx="4" fill="rgba(240,180,41,.4)" stroke="#F0B429"/>
      <text x="227" y="55" fill="#F0B429" font-size="9" text-anchor="middle">6:00-7:00</text>
      <rect x="335" y="0" width="40" height="40" rx="4" fill="rgba(240,180,41,.4)" stroke="#F0B429"/>
      <text x="355" y="55" fill="#F0B429" font-size="9" text-anchor="middle">10:30 EIA</text>
    </g>
    <g transform="translate(0, 280)">
      <text x="-10" y="20" fill="#fff" font-size="13" font-weight="700" text-anchor="end">GC</text>
      <rect x="195" y="0" width="80" height="40" rx="4" fill="rgba(244,114,182,.4)" stroke="#F472B6"/>
      <text x="235" y="55" fill="#F472B6" font-size="9" text-anchor="middle">6-8 London open</text>
      <rect x="295" y="0" width="60" height="40" rx="4" fill="rgba(244,114,182,.4)" stroke="#F472B6"/>
      <text x="325" y="55" fill="#F472B6" font-size="9" text-anchor="middle">9:30 NY open</text>
    </g>
  </g>
  <text x="450" y="475" fill="#F0B429" font-size="12" font-style="italic" text-anchor="middle">Trade in your asset's peak hours only · lunch chop and globex add zero edge during evals</text>
</svg>
