<svg xmlns="http://www.w3.org/2000/svg" viewBox="0 0 900 600" font-family="Inter, system-ui, sans-serif">
  <defs><linearGradient id="bg" x1="0" x2="0" y1="0" y2="1"><stop offset="0%" stop-color="#0F1422"/><stop offset="100%" stop-color="#070B14"/></linearGradient></defs>
  <rect width="900" height="600" fill="url(#bg)"/>
  <text x="450" y="40" fill="#F0B429" font-size="22" font-weight="700" text-anchor="middle">Recovery From Mid-Eval Drawdown</text>
  <text x="450" y="62" fill="#9AA0A8" font-size="13" text-anchor="middle">Lost -3R on day 2? · Cut size by 50% · trade only A setups · the path back is slower but real</text>
  <g transform="translate(60, 110)">
    <line x1="0" y1="240" x2="780" y2="240" stroke="rgba(255,255,255,.15)"/>
    <line x1="0" y1="100" x2="780" y2="100" stroke="rgba(16,185,129,.3)" stroke-dasharray="4,3"/>
    <text x="4" y="104" fill="#10B981" font-size="10" text-anchor="end">+8R target</text>
    <line x1="0" y1="320" x2="780" y2="320" stroke="rgba(239,68,68,.3)" stroke-dasharray="4,3"/>
    <text x="4" y="324" fill="#EF4444" font-size="10" text-anchor="end">-8R DD blow</text>
    <path d="M 30 240 L 100 280 L 170 290 L 240 270 L 310 260 L 380 230 L 450 200 L 520 170 L 590 140 L 660 110 L 730 100" fill="none" stroke="#10B981" stroke-width="2.5"/>
    <g transform="translate(170, 295)"><circle r="7" fill="#EF4444"/><text x="0" y="20" fill="#EF4444" font-size="10" font-weight="700" text-anchor="middle">day 2: -3R · LOW</text></g>
    <g transform="translate(310, 260)"><circle r="6" fill="#F0B429"/><text x="0" y="-10" fill="#F0B429" font-size="10" font-weight="700" text-anchor="middle">size cut 50%</text></g>
    <g transform="translate(730, 100)"><circle r="9" fill="#10B981" stroke="#fff" stroke-width="2"/><text x="0" y="-15" fill="#10B981" font-size="11" font-weight="700" text-anchor="middle">day 14: PASS</text></g>
  </g>
  <g transform="translate(60, 500)">
    <rect width="780" height="80" rx="10" fill="rgba(16,185,129,.05)" stroke="rgba(16,185,129,.3)"/>
    <text x="20" y="28" fill="#10B981" font-size="13" font-weight="700">Recovery protocol</text>
    <text x="20" y="50" fill="#9AA0A8" font-size="11">→ Cut size 50% after -2R · cut to 25% after -3R · re-scale up only after +2R consecutive</text>
    <text x="20" y="68" fill="#9AA0A8" font-size="11">→ Don't try to recover in one trade · DD that took 5 trades to build needs 8-12 to repair</text>
  </g>
</svg>
