<svg xmlns="http://www.w3.org/2000/svg" viewBox="0 0 900 566" font-family="Inter, system-ui, sans-serif">
  <defs><linearGradient id="bg" x1="0" x2="0" y1="0" y2="1"><stop offset="0%" stop-color="#0F1422"/><stop offset="100%" stop-color="#070B14"/></linearGradient></defs>
  <rect width="900" height="566" fill="url(#bg)"/>
  <text x="450" y="40" fill="#F0B429" font-size="22" font-weight="700" text-anchor="middle">Eval Daily Routine — 7 Steps</text>
  <text x="450" y="62" fill="#9AA0A8" font-size="13" text-anchor="middle">Reproducible workflow · same checklist every day · grinds the 8% target without heroics</text>
  <g transform="translate(60, 100)" font-size="11">
    <g><rect width="780" height="56" rx="8" fill="rgba(59,130,246,.05)" stroke="#3B82F6"/><circle cx="30" cy="28" r="14" fill="#1A1F2E" stroke="#3B82F6" stroke-width="2"/><text x="30" y="32" fill="#3B82F6" font-weight="700" text-anchor="middle">1</text><text x="60" y="24" fill="#3B82F6" font-weight="700">07:30 ET · pre-market scan</text><text x="60" y="42" fill="#9AA0A8">Mark daily POC/VAH/VAL · check news calendar · note overnight gaps</text></g>
    <g transform="translate(0, 66)"><rect width="780" height="56" rx="8" fill="rgba(59,130,246,.05)" stroke="#3B82F6"/><circle cx="30" cy="28" r="14" fill="#1A1F2E" stroke="#3B82F6" stroke-width="2"/><text x="30" y="32" fill="#3B82F6" font-weight="700" text-anchor="middle">2</text><text x="60" y="24" fill="#3B82F6" font-weight="700">08:30 ET · setup map</text><text x="60" y="42" fill="#9AA0A8">List 2-3 potential A-grade setups · screenshot · note entry/stop/target</text></g>
    <g transform="translate(0, 132)"><rect width="780" height="56" rx="8" fill="rgba(16,185,129,.05)" stroke="#10B981"/><circle cx="30" cy="28" r="14" fill="#1A1F2E" stroke="#10B981" stroke-width="2"/><text x="30" y="32" fill="#10B981" font-weight="700" text-anchor="middle">3</text><text x="60" y="24" fill="#10B981" font-weight="700">09:30 ET · open · OBSERVE only</text><text x="60" y="42" fill="#9AA0A8">First 30 minutes = volatility · don't trade · let HTF context emerge</text></g>
    <g transform="translate(0, 198)"><rect width="780" height="56" rx="8" fill="rgba(16,185,129,.05)" stroke="#10B981"/><circle cx="30" cy="28" r="14" fill="#1A1F2E" stroke="#10B981" stroke-width="2"/><text x="30" y="32" fill="#10B981" font-weight="700" text-anchor="middle">4</text><text x="60" y="24" fill="#10B981" font-weight="700">10:00-12:00 ET · prime trading window</text><text x="60" y="42" fill="#9AA0A8">Take 1-2 A setups · 1R risk each · max 2 trades window 1</text></g>
    <g transform="translate(0, 264)"><rect width="780" height="56" rx="8" fill="rgba(240,180,41,.05)" stroke="#F0B429"/><circle cx="30" cy="28" r="14" fill="#1A1F2E" stroke="#F0B429" stroke-width="2"/><text x="30" y="32" fill="#F0B429" font-weight="700" text-anchor="middle">5</text><text x="60" y="24" fill="#F0B429" font-weight="700">12:00-14:00 ET · LUNCH BREAK</text><text x="60" y="42" fill="#9AA0A8">Step away · 0 trades · review morning · adjust afternoon plan</text></g>
    <g transform="translate(0, 330)"><rect width="780" height="56" rx="8" fill="rgba(240,180,41,.05)" stroke="#F0B429"/><circle cx="30" cy="28" r="14" fill="#1A1F2E" stroke="#F0B429" stroke-width="2"/><text x="30" y="32" fill="#F0B429" font-weight="700" text-anchor="middle">6</text><text x="60" y="24" fill="#F0B429" font-weight="700">14:00-15:30 ET · second trading window</text><text x="60" y="42" fill="#9AA0A8">Max 1 trade · only if A-grade confluence exists · skip if morning was bad</text></g>
    <g transform="translate(0, 396)"><rect width="780" height="56" rx="8" fill="rgba(244,114,182,.05)" stroke="#F472B6"/><circle cx="30" cy="28" r="14" fill="#1A1F2E" stroke="#F472B6" stroke-width="2"/><text x="30" y="32" fill="#F472B6" font-weight="700" text-anchor="middle">7</text><text x="60" y="24" fill="#F472B6" font-weight="700">15:50 ET · CLOSE positions · journal</text><text x="60" y="42" fill="#9AA0A8">Flat by 15:50 · take 15 min to journal · note tomorrow's plan</text></g>
  </g>
</svg>
