<svg xmlns="http://www.w3.org/2000/svg" viewBox="0 0 900 520" font-family="Inter, system-ui, sans-serif">
  <defs><linearGradient id="bg6" x1="0" x2="0" y1="0" y2="1"><stop offset="0%" stop-color="#0F1422"/><stop offset="100%" stop-color="#070B14"/></linearGradient></defs>
  <rect width="900" height="520" fill="url(#bg6)"/>
  <text x="450" y="40" fill="#F0B429" font-size="22" font-weight="700" text-anchor="middle">Iceberg Orders — The Hidden Whale</text>
  <text x="450" y="62" fill="#9AA0A8" font-size="13" text-anchor="middle">A massive order split into small visible chunks. Like an iceberg — you see 10%, 90% sits below.</text>

  <g transform="translate(120, 100)">
    <line x1="0" y1="160" x2="660" y2="160" stroke="rgba(0,180,216,.5)" stroke-width="2" stroke-dasharray="6,4"/>
    <text x="-10" y="164" fill="#9AA0A8" font-size="10" text-anchor="end">water line</text>

    <path d="M 330 100 L 280 160 L 380 160 Z" fill="rgba(255,255,255,.85)" stroke="#fff" stroke-width="1.5"/>
    <text x="330" y="135" fill="#0F1422" font-size="12" font-weight="700" text-anchor="middle">25</text>
    <text x="330" y="80" fill="#fff" font-size="11" font-weight="700" text-anchor="middle">visible: 25 lots</text>

    <path d="M 280 160 L 180 220 L 180 310 L 250 380 L 410 380 L 480 310 L 480 220 L 380 160 Z" fill="rgba(255,255,255,.15)" stroke="rgba(255,255,255,.3)" stroke-width="1.5"/>
    <text x="330" y="240" fill="#fff" font-size="14" font-weight="700" text-anchor="middle">HIDDEN: 4,975 lots</text>
    <text x="330" y="262" fill="#9AA0A8" font-size="11" text-anchor="middle">refills every time the 25 fills</text>

    <text x="330" y="310" fill="#F0B429" font-size="13" font-weight="700" text-anchor="middle">total true order: 5,000 lots</text>
  </g>

  <g transform="translate(60, 430)">
    <rect width="780" height="80" rx="10" fill="rgba(0,180,216,.05)" stroke="rgba(0,180,216,.3)"/>
    <text x="20" y="28" fill="#00B4D8" font-size="13" font-weight="700">How to detect</text>
    <text x="20" y="48" fill="#9AA0A8" font-size="11">Same price level shows huge cumulative volume (e.g. 5,000 lots) but DOM size stayed small (25-50)</text>
    <text x="20" y="64" fill="#9AA0A8" font-size="11">Tape replay reveals the refill pattern — most platforms flag icebergs automatically</text>
  </g>
</svg>
