<svg xmlns="http://www.w3.org/2000/svg" viewBox="0 0 900 540" font-family="Inter, system-ui, sans-serif">
  <defs><linearGradient id="bg12" x1="0" x2="0" y1="0" y2="1"><stop offset="0%" stop-color="#0F1422"/><stop offset="100%" stop-color="#070B14"/></linearGradient></defs>
  <rect width="900" height="540" fill="url(#bg12)"/>
  <text x="450" y="40" fill="#F0B429" font-size="22" font-weight="700" text-anchor="middle">Spring Setup — Entry, Stop &amp; Target Anatomy</text>
  <text x="450" y="62" fill="#9AA0A8" font-size="13" text-anchor="middle">Exact rules: enter on Test bar close · stop below Spring low · target prior range high (1:3+ R)</text>

  <g transform="translate(60, 100)">
    <line x1="0" y1="80" x2="780" y2="80" stroke="rgba(16,185,129,.3)" stroke-dasharray="4,3"/>
    <line x1="0" y1="240" x2="340" y2="240" stroke="rgba(255,255,255,.15)" stroke-dasharray="4,3"/>
    <line x1="0" y1="290" x2="780" y2="290" stroke="rgba(239,68,68,.3)" stroke-dasharray="4,3"/>
    <text x="43" y="84" fill="#10B981" font-size="10" text-anchor="end">TARGET (range high)</text>
    <text x="43" y="244" fill="#9AA0A8" font-size="10" text-anchor="end">range low</text>
    <text x="43" y="294" fill="#EF4444" font-size="10" text-anchor="end">STOP</text>

    <path d="M 30 200 L 80 220 L 130 180 L 180 230 L 220 285 L 260 250 L 310 220 L 360 180 L 420 140 L 480 100 L 540 90 L 600 85" fill="none" stroke="#fff" stroke-width="2"/>

    <circle cx="220" cy="285" r="9" fill="#10B981" stroke="#fff" stroke-width="2"/>
    <text x="220" y="310" fill="#10B981" font-size="11" font-weight="700" text-anchor="middle">SPRING</text>

    <circle cx="260" cy="250" r="7" fill="#F0B429"/>
    <text x="260" y="232" fill="#F0B429" font-size="10" font-weight="700" text-anchor="middle">TEST</text>

    <g>
      <rect x="350" y="230" width="220" height="40" rx="6" fill="rgba(16,185,129,.12)" stroke="#10B981"/>
      <text x="460" y="247" fill="#10B981" font-size="11" font-weight="700" text-anchor="middle">ENTRY: close of Test bar</text>
      <text x="460" y="262" fill="#9AA0A8" font-size="10" text-anchor="middle">(some traders take Spring close for aggressive entry)</text>
      <path d="M 280 250 L 350 250" stroke="#10B981" stroke-width="2" stroke-dasharray="3,3" marker-end="url(#m12)"/>
    </g>

    <g>
      <line x1="265" y1="250" x2="265" y2="290" stroke="#EF4444" stroke-width="2" stroke-dasharray="3,2"/>
      <text x="285" y="275" fill="#EF4444" font-size="10" font-weight="700">RISK = 1R</text>
    </g>

    <g>
      <line x1="600" y1="85" x2="600" y2="250" stroke="#10B981" stroke-width="2" stroke-dasharray="3,2"/>
      <text x="610" y="170" fill="#10B981" font-size="10" font-weight="700">REWARD = 3-4R</text>
    </g>

    <defs>
      <marker id="m12" viewBox="0 0 10 10" refX="9" refY="5" markerWidth="8" markerHeight="8" orient="auto">
        <path d="M0,0 L10,5 L0,10 z" fill="#10B981"/>
      </marker>
    </defs>
  </g>

  <g transform="translate(60, 425)">
    <rect width="780" height="90" rx="10" fill="rgba(16,185,129,.05)" stroke="rgba(16,185,129,.3)"/>
    <text x="20" y="28" fill="#10B981" font-size="13" font-weight="700">Rule recap</text>
    <text x="20" y="48" fill="#9AA0A8" font-size="11">ENTRY · close of Test bar (must be on low volume, no new low vs Spring)</text>
    <text x="20" y="64" fill="#9AA0A8" font-size="11">STOP · 2-3 ticks below Spring low — invalidation level</text>
    <text x="20" y="80" fill="#9AA0A8" font-size="11">TARGET 1 · prior range high · TARGET 2 · P&amp;F count projection · trail with SOS/LPS structure</text>
  </g>
</svg>
