<svg xmlns="http://www.w3.org/2000/svg" viewBox="0 0 900 520" font-family="Inter, system-ui, sans-serif">
  <defs><linearGradient id="bg13" x1="0" x2="0" y1="0" y2="1"><stop offset="0%" stop-color="#0F1422"/><stop offset="100%" stop-color="#070B14"/></linearGradient></defs>
  <rect width="900" height="520" fill="url(#bg13)"/>
  <text x="450" y="40" fill="#F0B429" font-size="22" font-weight="700" text-anchor="middle">UTAD Setup — The Distribution Mirror</text>
  <text x="450" y="62" fill="#9AA0A8" font-size="13" text-anchor="middle">Short on Test bar close · stop above UTAD high · target prior range low</text>

  <g transform="translate(60, 100)">
    <line x1="0" y1="60" x2="780" y2="60" stroke="rgba(239,68,68,.3)" stroke-dasharray="4,3"/>
    <line x1="0" y1="110" x2="780" y2="110" stroke="rgba(255,255,255,.15)" stroke-dasharray="4,3"/>
    <line x1="0" y1="270" x2="780" y2="270" stroke="rgba(16,185,129,.3)" stroke-dasharray="4,3"/>
    <text x="39" y="64" fill="#EF4444" font-size="10" text-anchor="end">STOP</text>
    <text x="39" y="114" fill="#9AA0A8" font-size="10" text-anchor="end">range high</text>
    <text x="39" y="274" fill="#10B981" font-size="10" text-anchor="end">TARGET (range low)</text>

    <path d="M 30 150 L 80 130 L 130 170 L 180 120 L 220 65 L 260 100 L 310 130 L 360 170 L 420 210 L 480 250 L 540 265 L 600 270" fill="none" stroke="#fff" stroke-width="2"/>

    <circle cx="220" cy="65" r="9" fill="#EF4444" stroke="#fff" stroke-width="2"/>
    <text x="220" y="50" fill="#EF4444" font-size="11" font-weight="700" text-anchor="middle">UTAD</text>

    <circle cx="260" cy="100" r="7" fill="#F0B429"/>
    <text x="260" y="120" fill="#F0B429" font-size="10" font-weight="700" text-anchor="middle">TEST</text>

    <g>
      <rect x="350" y="80" width="220" height="40" rx="6" fill="rgba(239,68,68,.12)" stroke="#EF4444"/>
      <text x="460" y="98" fill="#EF4444" font-size="11" font-weight="700" text-anchor="middle">ENTRY: close of Test bar</text>
      <text x="460" y="112" fill="#9AA0A8" font-size="10" text-anchor="middle">Short below range high after failed retest</text>
      <path d="M 280 100 L 350 100" stroke="#EF4444" stroke-width="2" stroke-dasharray="3,3" marker-end="url(#m13)"/>
    </g>

    <g>
      <line x1="265" y1="100" x2="265" y2="60" stroke="#EF4444" stroke-width="2" stroke-dasharray="3,2"/>
      <text x="285" y="80" fill="#EF4444" font-size="10" font-weight="700">RISK = 1R</text>
    </g>

    <g>
      <line x1="600" y1="100" x2="600" y2="270" stroke="#10B981" stroke-width="2" stroke-dasharray="3,2"/>
      <text x="610" y="190" fill="#10B981" font-size="10" font-weight="700">REWARD = 3-4R</text>
    </g>

    <defs>
      <marker id="m13" viewBox="0 0 10 10" refX="9" refY="5" markerWidth="8" markerHeight="8" orient="auto">
        <path d="M0,0 L10,5 L0,10 z" fill="#EF4444"/>
      </marker>
    </defs>
  </g>

  <g transform="translate(60, 410)">
    <rect width="780" height="90" rx="10" fill="rgba(239,68,68,.05)" stroke="rgba(239,68,68,.3)"/>
    <text x="20" y="28" fill="#EF4444" font-size="13" font-weight="700">Rule recap</text>
    <text x="20" y="48" fill="#9AA0A8" font-size="11">ENTRY · close of Test bar (no new high vs UTAD, low volume confirms failed effort)</text>
    <text x="20" y="64" fill="#9AA0A8" font-size="11">STOP · 2-3 ticks above UTAD high</text>
    <text x="20" y="80" fill="#9AA0A8" font-size="11">TARGET 1 · prior range low · TARGET 2 · P&amp;F count below · trail with SOW/LPSY</text>
  </g>
</svg>
