<svg width="1396" height="247" viewBox="0 0 1396 247" fill="none" xmlns="http://www.w3.org/2000/svg">
<path d="M0 247.001H41.8664L98.3859 147.149L114.086 174.477H155.952L119.319 109.311L139.206 74.6258L195.725 174.477H237.592L139.206 0L0 247.001Z" fill="white"/>
<path d="M103.619 210.213L81.6394 247.001H278.411L257.478 210.213H103.619Z" fill="white"/>
<path d="M339.569 167.834H333.217L373.712 79.1668H381.785L422.281 167.834H415.929L402.827 139.646H352.538L339.569 167.834ZM372.786 95.8415L355.053 134.22H400.313L382.579 95.8415L377.815 84.9897H377.286L372.786 95.8415Z" fill="white"/>
<path d="M495.654 167.834H432.263V79.1668H438.218V162.408H495.654V167.834Z" fill="white"/>
<path d="M513.047 167.834H507.092V79.1668H545.999C555.616 79.1668 563.38 81.7695 569.291 86.9748C575.29 92.1801 578.29 99.3264 578.29 108.414C578.29 117.501 575.29 124.647 569.291 129.853C563.38 135.058 555.616 137.661 545.999 137.661H513.047V167.834ZM545.735 84.5927H513.047V132.235H545.735C563.468 132.235 572.335 124.294 572.335 108.414C572.335 92.533 563.468 84.5927 545.735 84.5927Z" fill="white"/>
<path d="M595.63 167.834H589.674V79.1668H595.63V120.457H656.241V79.1668H662.064V167.834H656.241V125.75H595.63V167.834Z" fill="white"/>
<path d="M678.3 167.834H671.948L712.444 79.1668H720.516L761.012 167.834H754.66L741.558 139.646H691.269L678.3 167.834ZM711.517 95.8415L693.784 134.22H739.044L721.31 95.8415L716.546 84.9897H716.017L711.517 95.8415Z" fill="white"/>
<path d="M805.786 167.834H791.494V79.1668H862.03V92.0037H805.786V119.53H860.045V132.235H805.786V167.834Z" fill="white"/>
<path d="M944.382 159.232C937.148 165.849 926.914 169.157 913.68 169.157C900.446 169.157 890.212 165.849 882.977 159.232C875.743 152.527 872.125 143.131 872.125 131.044V79.1668H886.286V130.117C886.286 139.028 888.403 145.469 892.638 149.439C896.961 153.409 903.975 155.394 913.68 155.394C923.385 155.394 930.355 153.409 934.589 149.439C938.912 145.469 941.074 139.028 941.074 130.117V79.1668H955.367V131.044C955.367 143.131 951.705 152.527 944.382 159.232Z" fill="white"/>
<path d="M1012.1 167.834H997.941V92.0037H963.003V79.1668H1046.91V92.0037H1012.1V167.834Z" fill="white"/>
<path d="M1126.99 159.232C1119.76 165.849 1109.53 169.157 1096.29 169.157C1083.06 169.157 1072.82 165.849 1065.59 159.232C1058.36 152.527 1054.74 143.131 1054.74 131.044V79.1668H1068.9V130.117C1068.9 139.028 1071.02 145.469 1075.25 149.439C1079.57 153.409 1086.59 155.394 1096.29 155.394C1106 155.394 1112.97 153.409 1117.2 149.439C1121.52 145.469 1123.69 139.028 1123.69 130.117V79.1668H1137.98V131.044C1137.98 143.131 1134.32 152.527 1126.99 159.232Z" fill="white"/>
<path d="M1164.94 167.834H1150.64V79.1668H1196.7C1206.84 79.1668 1214.78 81.4607 1220.52 86.0484C1226.34 90.6362 1229.25 97.0326 1229.25 105.238C1229.25 112.56 1226.96 118.383 1222.37 122.706C1217.78 127.029 1211.3 129.412 1202.92 129.853V130.779C1206.09 131.661 1208.65 132.985 1210.59 134.749C1212.53 136.514 1214.39 138.984 1216.15 142.16L1230.97 167.834H1214.56L1200.4 143.351C1198.29 139.646 1195.9 137.087 1193.26 135.676C1190.61 134.176 1186.6 133.426 1181.21 133.426H1164.94V167.834ZM1164.94 92.0037V122.442H1196.57C1202.65 122.442 1207.15 121.295 1210.06 119.001C1212.98 116.619 1214.43 112.693 1214.43 107.223C1214.43 101.929 1212.98 98.0913 1210.06 95.7092C1207.15 93.2388 1202.65 92.0037 1196.57 92.0037H1164.94Z" fill="white"/>
<path d="M1310.49 167.834H1239.56V79.1668H1310.49V92.0037H1253.85V116.883H1308.51V129.588H1253.85V154.997H1310.49V167.834Z" fill="white"/>
<path d="M1358.81 169.157C1345.84 169.157 1335.92 166.511 1329.04 161.217C1322.24 155.835 1318.85 148.38 1318.85 138.852V138.058H1333.14V140.175C1333.14 145.645 1335.04 149.659 1338.83 152.218C1342.71 154.777 1349.37 156.056 1358.81 156.056C1367.11 156.056 1372.97 155.129 1376.41 153.277C1379.94 151.336 1381.71 148.248 1381.71 144.013C1381.71 140.307 1380.52 137.528 1378.13 135.676C1375.84 133.823 1371.78 132.367 1365.96 131.308L1344.26 127.735C1327.23 124.736 1318.71 116.707 1318.71 103.65C1318.71 96.5032 1321.85 90.4156 1328.11 85.3867C1334.46 80.3578 1344.03 77.8434 1356.83 77.8434C1369.27 77.8434 1378.66 80.6225 1385.02 86.1808C1391.37 91.739 1394.54 99.0618 1394.54 108.149V108.943H1380.38V107.223C1380.38 101.664 1378.49 97.5619 1374.69 94.9151C1370.9 92.2684 1364.5 90.945 1355.5 90.945C1347.56 90.945 1341.83 91.9155 1338.3 93.8564C1334.77 95.7974 1333.01 98.7971 1333.01 102.855C1333.01 106.561 1334.11 109.296 1336.32 111.061C1338.61 112.737 1342.49 114.148 1347.96 115.295L1369.53 119.001C1387.18 122.177 1396 130.25 1396 143.219C1396 150.542 1392.87 156.717 1386.6 161.746C1380.43 166.687 1371.16 169.157 1358.81 169.157Z" fill="white"/>
</svg>
