<svg width="183" height="20" viewBox="0 0 183 20" fill="none" xmlns="http://www.w3.org/2000/svg">
<path d="M6.97374 0.348266L0 16.1831H4.56116L5.7857 13.1105H12.5151L13.7397 16.1831H18.3963L11.386 0.348266H6.97655H6.97374ZM7.1254 9.81042L9.142 4.75776L11.1782 9.81042H7.1254ZM32.2876 16.8235C31.9478 16.8235 31.6473 16.7477 31.3439 16.6157C31.0434 16.4837 30.7401 16.2562 30.4592 15.936C30.4396 15.936 30.4396 15.9163 30.4396 15.9163C30.4592 15.9163 30.4958 15.8967 30.535 15.8967C31.5911 15.481 32.5151 14.9164 33.3071 14.1806C34.0795 13.4279 34.703 12.56 35.1552 11.5602C35.5877 10.5603 35.8152 9.46775 35.8152 8.26288C35.8152 7.058 35.5877 5.98231 35.1552 4.98245C34.703 3.98258 34.0795 3.09788 33.3071 2.36203C32.5151 1.62617 31.5911 1.06165 30.535 0.645977C29.4593 0.230305 28.291 0.0421289 27.0103 0.0421289C25.7295 0.0421289 24.578 0.230305 23.5052 0.645977C22.4294 1.06165 21.5083 1.62618 20.7162 2.37888C19.9242 3.11473 19.3035 3.97978 18.8682 4.97964C18.4356 5.9795 18.2081 7.07204 18.2081 8.26007C18.2081 9.44808 18.4356 10.5603 18.8682 11.5405C19.3007 12.5403 19.9242 13.4054 20.7162 14.1609C21.5083 14.8967 22.4323 15.481 23.5052 15.8938C24.0697 16.1017 24.6735 16.2533 25.297 16.346C25.8447 16.9106 26.353 17.4021 26.8053 17.8149C27.4091 18.3429 27.9932 18.7754 28.5578 19.0957C29.1223 19.4158 29.7065 19.6433 30.2907 19.7922C30.8749 19.9242 31.5153 20 32.1949 20C34.043 20 35.5315 19.34 36.6241 18.0031L34.6833 15.7028C33.9672 16.4387 33.1554 16.8151 32.2904 16.8151L32.2876 16.8235ZM30.0632 11.5657C29.6672 11.9618 29.215 12.2623 28.7067 12.4702C28.1787 12.6977 27.6141 12.7903 27.0103 12.7903C26.4064 12.7903 25.8419 12.6948 25.3335 12.4702C24.8055 12.2623 24.3533 11.9618 23.977 11.5657C23.5809 11.1697 23.2804 10.6811 23.0726 10.1334C22.8451 9.56892 22.7328 8.94533 22.7328 8.2685C22.7328 7.59163 22.8451 6.96812 23.0726 6.40359C23.2804 5.85592 23.5809 5.38688 23.977 4.99087C24.3533 4.59486 24.8055 4.27468 25.3335 4.06684C25.8419 3.85901 26.4093 3.74667 27.0103 3.74667C27.6113 3.74667 28.1787 3.85901 28.7067 4.06684C29.215 4.27468 29.6672 4.59486 30.0632 4.99087C30.4396 5.38688 30.7428 5.85872 30.9676 6.40359C31.1754 6.96812 31.2878 7.59163 31.2878 8.2685C31.2878 8.94533 31.1754 9.56892 30.9676 10.1334C30.7401 10.6811 30.4396 11.1697 30.0632 11.5657ZM48.5016 0.356692H52.9111V9.13075C52.9111 11.4843 52.2567 13.3015 50.9423 14.5822C49.6278 15.8629 47.8051 16.5033 45.4683 16.5033C43.1316 16.5033 41.306 15.8629 39.9944 14.5822C38.6828 13.3015 38.0256 11.4815 38.0256 9.13075V0.356692H42.5053V8.99592C42.5053 10.3525 42.7749 11.3242 43.3085 11.9141C43.8422 12.5011 44.578 12.7959 45.5133 12.7959C46.4485 12.7959 47.1788 12.5011 47.7068 11.9141C48.232 11.3242 48.4988 10.3525 48.4988 8.99592V0.356692H48.5016ZM74.4839 9.05492C74.4306 9.083 74.3744 9.10825 74.321 9.13633C72.9533 9.81042 71.7512 10.4143 69.347 10.4788L64.8588 0.348266H60.4493L53.456 16.1803H58.0172L59.9888 11.2737C61.3228 12.2258 63.2945 13.1386 66.1283 13.5122L67.1956 16.1803H71.8691L70.7233 13.5936C72.3101 13.4222 73.4897 13.0403 74.4811 12.6022V16.1831H78.9608V10.7794C80.2556 10.5126 81.9436 10.4199 84.44 10.6614V7.43716C82.1177 7.23213 80.3708 7.30797 78.9608 7.52703V3.81127H86.9008V0.356692H74.4839V9.05775V9.05492ZM61.2273 8.19828L62.6176 4.74091L64.7184 9.993C62.9687 9.51833 61.8789 8.7965 61.2273 8.19828ZM99.4858 0.356692H103.896V9.13075C103.896 11.4843 103.241 13.3015 101.927 14.5822C100.613 15.8629 98.7892 16.5033 96.4525 16.5033C94.1158 16.5033 92.29 15.8629 90.9792 14.5822C89.6675 13.3015 89.01 11.4815 89.01 9.13075V0.356692H93.49V8.99592C93.49 10.3525 93.7592 11.3242 94.2933 11.9141C94.8267 12.5011 95.5625 12.7959 96.4975 12.7959C97.4333 12.7959 98.1633 12.5011 98.6908 11.9141C99.2167 11.3242 99.4833 10.3525 99.4833 8.99592V0.356692H99.4858ZM105.157 3.85058H109.996V16.0736H114.453V3.85058H119.27V0.317371H105.157V3.85058ZM130.976 8.91725C130.976 10.2682 130.712 11.2344 130.189 11.8213C129.664 12.4056 128.937 12.7005 128.008 12.7005C127.077 12.7005 126.345 12.4083 125.814 11.8213C125.28 11.2372 125.013 10.2682 125.013 8.91725V0.317371H120.556V9.04925C120.556 11.3888 121.211 13.2004 122.513 14.4727C123.82 15.7478 125.634 16.3853 127.963 16.3853C130.291 16.3853 132.105 15.7478 133.411 14.4727C134.717 13.1976 135.368 11.3888 135.368 9.04925V0.317371H130.979V8.9145L130.976 8.91725ZM151.728 9.22058C152.299 8.35842 152.585 7.33324 152.585 6.14802C152.585 4.96278 152.299 3.90957 151.728 3.03047C151.158 2.15419 150.353 1.48294 149.308 1.01671C148.266 0.550484 147.024 0.32018 145.581 0.32018H138.379V16.0764H142.837V11.8888H145.272L148.128 16.0764H152.9L149.496 11.1136C150.448 10.6614 151.195 10.0323 151.728 9.22058ZM147.395 4.43758C147.85 4.84202 148.08 5.41216 148.08 6.14802C148.08 6.88387 147.85 7.43154 147.395 7.83597C146.938 8.24042 146.243 8.44542 145.311 8.44542H142.834V3.82812H145.311C146.241 3.82812 146.934 4.03033 147.395 4.43477V4.43758ZM159.449 9.74867H166.448V6.41764H159.449V3.76071H167.395V0.317371H155.038V16.0736H167.688V12.6302H159.449V9.74867ZM182.193 9.24308C181.871 8.69542 181.447 8.25165 180.921 7.91462C180.396 7.57759 179.815 7.30797 179.177 7.10293C178.537 6.90072 177.899 6.7322 177.262 6.59739C176.624 6.46257 176.037 6.33057 175.506 6.20138C174.973 6.07499 174.546 5.90928 174.223 5.70707C173.9 5.50484 173.74 5.2296 173.74 4.88414C173.74 4.61452 173.821 4.37298 173.987 4.16233C174.153 3.95169 174.423 3.78317 174.796 3.65679C175.172 3.5304 175.667 3.46581 176.282 3.46581C176.973 3.46581 177.686 3.56692 178.422 3.76913C179.158 3.97135 179.899 4.27468 180.649 4.68192L182.023 1.3734C181.242 0.924025 180.354 0.581379 179.354 0.348266C178.354 0.115152 177.34 0 176.304 0C174.759 0 173.468 0.233113 172.431 0.696532C171.398 1.16276 170.619 1.77503 170.1 2.54177C169.583 3.30572 169.324 4.16233 169.324 5.10603C169.324 5.94579 169.49 6.64232 169.819 7.19C170.148 7.73768 170.574 8.18143 171.103 8.5185C171.628 8.8555 172.209 9.13075 172.849 9.34142C173.487 9.552 174.124 9.72333 174.762 9.85817C175.399 9.993 175.981 10.1277 176.506 10.2626C177.032 10.3974 177.461 10.5716 177.79 10.7822C178.118 10.9928 178.284 11.2765 178.284 11.6388C178.284 11.8944 178.197 12.1163 178.026 12.3017C177.854 12.487 177.579 12.6387 177.203 12.751C176.827 12.8633 176.332 12.9195 175.717 12.9195C174.804 12.9195 173.883 12.7735 172.959 12.4814C172.035 12.1893 171.223 11.8186 170.518 11.3664L169.055 14.6524C169.805 15.1636 170.777 15.5793 171.97 15.9023C173.164 16.2253 174.405 16.3853 175.698 16.3853C177.259 16.3853 178.551 16.1522 179.582 15.6888C180.609 15.2254 181.382 14.6047 181.898 13.8323C182.418 13.06 182.677 12.2146 182.677 11.299C182.677 10.4732 182.517 9.78792 182.193 9.24025V9.24308Z" fill="#007AFE"/>
</svg>
