<svg width="83" height="26" viewBox="0 0 83 26" fill="none" xmlns="http://www.w3.org/2000/svg">
<path d="M10.8812 14.34V15.419H3.55455V19.3695H9.83701V20.4485H3.55455V25.826H2.16232V14.34H10.8812Z" fill="white"/>
<path d="M11.1227 22.4672V17.0027H12.4453V22.2236C12.4453 24.0335 13.5417 24.921 15.0731 24.921C16.6046 24.921 17.8054 23.9291 17.8054 22.0495V17.0027H19.1454V25.826H17.8228V24.5904H17.6488C17.0397 25.4953 15.9955 26 14.7599 26C12.6367 26 11.1227 24.8862 11.1227 22.4672Z" fill="white"/>
<path d="M19.9677 18.0295V17.0027H22.0735V16.8461L21.708 16.7068C21.4992 16.6372 21.4121 16.4806 21.4121 16.2718V14.2878H22.8914V17.0027H25.7455V18.012H22.874V24.7818H26.0587V25.826H23.2395C21.9516 25.826 21.5688 25.3561 21.5688 24.2771V18.012L19.9677 18.0295Z" fill="white"/>
<path d="M26.6961 22.4672V17.0027H28.0187V22.2236C28.0187 24.0335 29.1151 24.921 30.6466 24.921C32.178 24.921 33.3788 23.9291 33.3788 22.0495V17.0027H34.7189V25.826H33.3962V24.5904H33.2222C32.6131 25.4953 31.5689 26 30.3333 26C28.2102 26 26.6961 24.8862 26.6961 22.4672Z" fill="white"/>
<path d="M40.6946 16.8635H40.9208V18.0469H40.5206C38.7455 18.0469 37.3706 19.3173 37.3706 21.5971V25.826H36.048V17.0027H37.3358V18.4993H37.5447C38.1538 17.4552 39.2502 16.8635 40.6946 16.8635Z" fill="white"/>
<path d="M41.1558 21.4404C41.1558 18.7604 42.6524 16.8286 45.6457 16.8286C48.3606 16.8286 49.8747 18.4645 49.8747 21.075C49.8747 21.2838 49.8573 21.4404 49.8399 21.5971H42.4784C42.5306 23.9291 43.6792 25.0428 45.698 25.0428C47.4557 25.0428 48.3432 24.2075 48.6042 22.9719H49.8747C49.6136 24.5208 48.4302 26 45.6457 26C42.5654 26 41.1558 24.0161 41.1558 21.4404ZM48.5542 20.7269C48.502 18.6212 47.3186 17.7684 45.6653 17.7684C43.8206 17.7684 42.7068 18.743 42.498 20.7269H48.5542Z" fill="white"/>
<path d="M54.9433 25.0776C56.3529 25.0776 57.2753 24.6078 57.2753 23.4766C57.2753 22.5716 56.7358 22.0669 55.3261 21.8929L53.4988 21.6319C51.8629 21.423 50.9406 20.8139 50.9232 19.3347C50.9232 17.7162 52.298 16.8112 54.4908 16.8112C56.9272 16.8112 58.2324 17.9076 58.3716 19.6479H57.1534C57.0664 18.656 56.3703 17.751 54.4908 17.751C52.8897 17.751 52.2284 18.3601 52.2284 19.3347C52.2284 20.0134 52.5765 20.5529 53.8469 20.7095L55.709 20.9357C57.5537 21.162 58.5805 21.7885 58.5631 23.4418C58.5457 25.1299 57.2405 26 54.9259 26C51.9152 26 50.8014 24.6948 50.6969 22.8327H51.8978C52.0196 24.0683 52.6113 25.0776 54.9433 25.0776Z" fill="white"/>
<path d="M18.0099 2.79535H20.281V7.94444C20.281 9.46503 21.1206 10.2503 22.4433 10.2503C23.9095 10.2503 24.8579 9.33886 24.8579 7.49632V2.79535H27.1464V11.8601H24.8753V10.5549H24.6426C24.0161 11.4838 22.998 12.0385 21.621 12.0385C19.3325 12.0385 18.0099 10.7507 18.0099 8.32078V2.79535Z" fill="white"/>
<path d="M28.0644 7.31794C28.0644 4.65311 29.6198 2.57999 32.9459 2.57999C36.2721 2.57999 37.6121 4.5835 37.6121 7.15696C37.6121 7.40713 37.6121 7.62249 37.5773 7.80087H30.3181C30.4247 9.71302 31.3906 10.5179 33.0003 10.5179C34.3947 10.5179 35.1278 9.8914 35.3954 8.99732H37.5947C37.3271 10.5527 36.0567 12.0363 32.9459 12.0363C29.4784 12.0363 28.0644 9.85442 28.0644 7.31576V7.31794ZM35.4302 6.46084C35.341 4.90546 34.447 4.08317 32.9808 4.08317C31.5146 4.08317 30.5487 4.88805 30.3355 6.46084H35.4302Z" fill="white"/>
<path d="M38.578 0.0587349H40.8665V4.06359H41.0992C41.7605 3.13471 42.8504 2.63437 44.2992 2.63437C47.249 2.63437 48.6086 4.69009 48.6086 7.37232C48.6086 10.0546 47.249 12.1103 44.2992 12.1103C42.8504 12.1103 41.7779 11.5925 41.0992 10.6985H40.8665V11.8601H38.578V0.0587349ZM43.5857 10.3765C45.3912 10.3765 46.3223 9.32145 46.3223 7.38973C46.3223 5.458 45.3934 4.35074 43.5857 4.35074C41.7779 4.35074 40.8686 5.52979 40.8686 7.38973C40.8686 9.24967 41.8345 10.3765 43.5857 10.3765Z" fill="white"/>
<path d="M49.3134 7.31794C49.3134 4.65311 50.8688 2.57999 54.1949 2.57999C57.5211 2.57999 58.8611 4.5835 58.8611 7.15696C58.8611 7.40713 58.8611 7.62249 58.8263 7.80087H51.5671C51.6737 9.71302 52.6396 10.5179 54.2493 10.5179C55.6437 10.5179 56.3768 9.8914 56.6444 8.99732H58.8437C58.5761 10.5527 57.3057 12.0363 54.1949 12.0363C50.7274 12.0363 49.3134 9.85442 49.3134 7.31576V7.31794ZM56.6792 6.46084C56.59 4.90546 55.6959 4.08317 54.2297 4.08317C52.7635 4.08317 51.7977 4.88805 51.5845 6.46084H56.6792Z" fill="white"/>
<path d="M65.0848 2.72356H65.5852V4.83367H64.8173C63.1357 4.83367 62.1176 5.83434 62.1176 7.90964V11.8601H59.8291V2.79535H62.0458V4.20716H62.2786C62.8159 3.2587 63.7448 2.72356 65.0848 2.72356Z" fill="white"/>
<path d="M71.9808 4.83367H71.2128C69.5313 4.83367 68.5132 5.83434 68.5132 7.90964V11.8601H66.2247V2.79535H68.4414V4.20716H68.6742C69.2115 3.2587 70.1295 2.72356 71.0258 2.72356" fill="white"/>
<path d="M15.9346 10.0828H17.4552V11.834H16.4001C14.3074 11.834 13.6287 10.9399 13.6287 9.24096V0.0174029H15.9346V10.0828Z" fill="white"/>
<path d="M10.5049 5.81041V5.57764C11.6665 5.22088 12.417 4.48778 12.417 2.9672C12.417 1.30522 11.4511 0 8.78849 0H2.15579V4.95331H0L2.15579 6.54351V11.8536H8.75368C11.3467 11.8536 12.6324 10.6745 12.6324 8.65361C12.6324 6.90244 11.7035 6.11496 10.5049 5.81041ZM4.47908 1.71637H8.1076C9.50201 1.71637 9.95013 2.2341 9.95013 3.37835C9.95013 4.36161 9.50418 4.95114 8.07279 4.95114H4.47908V2.69528L3.14993 1.71419H4.47908V1.71637ZM8.19679 10.1372H4.47908V7.5246L3.14993 6.54351H8.1076C9.66298 6.54351 10.1807 7.22222 10.1807 8.34906C10.1807 9.4759 9.68039 10.1372 8.19679 10.1372Z" fill="white"/>
<path d="M79.9165 2.79535L76.9297 9.7326L74.1039 2.79535H71.7262L75.7485 11.6991L75.0524 13.2197C75.0524 13.2197 74.8892 13.6396 74.5172 13.6396H73.1663V15.3907H74.2214C75.4113 15.3907 76.1422 15.1014 76.5534 14.538C76.66 14.4053 76.7557 14.2552 76.8405 14.079L82.2376 2.79535H79.9143H79.9165Z" fill="white"/>
</svg>
