<svg width="303" height="118" viewBox="0 0 303 118" fill="none" xmlns="http://www.w3.org/2000/svg">
<g clip-path="url(#clip0_601_17938)">
<path d="M115.578 47.7442C115.578 48.3494 115.505 48.9209 115.325 49.3859C116.037 50.2769 116.575 51.5264 116.575 52.7367V58.0485C116.575 60.9677 114.188 63.3211 111.263 63.3211H90.9102V37.6641H110.299C113.185 37.6641 115.572 40.0174 115.572 42.9367V47.7442H115.578ZM96.435 47.4921H109.979V43.2168H96.435V47.4921ZM96.435 57.7571H110.977V53.056H96.435V57.7571Z" fill="white"/>
<path d="M120.474 37.625H125.999V57.7629H146.139V63.3213H120.474V37.625Z" fill="white"/>
<path d="M154.596 57.7588H169.137V37.6602H174.73V58.0446C174.73 60.9639 172.343 63.3172 169.457 63.3172H154.344C151.424 63.3172 149.07 60.9639 149.07 58.0446V37.6602H154.596V57.7588Z" fill="white"/>
<path d="M202.439 43.2183H184.334V47.7064H198.909V53.2648H184.334V57.753H202.439V63.3113H178.741V37.6543H202.439V43.2183Z" fill="white"/>
<path d="M116.573 78.2034H110.98V76.0685H96.4382V90.6087H110.98V86.7593H105.421V81.2006H116.578V90.8944C116.578 93.8138 114.191 96.1668 111.265 96.1668H96.1919C93.2723 96.1668 90.9185 93.8138 90.9185 90.8944V75.7828C90.9185 72.8634 93.2665 70.5098 96.1919 70.5098H111.265C114.185 70.5098 116.578 72.8634 116.578 75.7828V78.2034H116.573Z" fill="white"/>
<path d="M125.965 90.6087H140.507V70.5098H146.1V90.8944C146.1 93.8138 143.712 96.1668 140.826 96.1668H125.713C122.794 96.1668 120.44 93.8138 120.44 90.8944V70.5098H125.965V90.6087Z" fill="white"/>
<path d="M170.43 70.5098C173.35 70.5098 175.742 72.8634 175.742 75.7828V96.1668H170.15V87.9023H155.608V96.1668H150.083V75.7828C150.083 72.8634 152.437 70.5098 155.356 70.5098H170.43ZM170.144 82.3385V76.0685H155.603V82.3385H170.144Z" fill="white"/>
<path d="M205.446 82.4462C205.446 85.3318 203.059 87.7186 200.134 87.7186H199.882C201.697 89.8534 203.658 92.1343 205.44 94.2743V96.1629H199.736L192.642 87.7186L185.301 87.7524C185.374 87.7524 185.407 87.8251 185.407 87.9654C185.407 87.9654 185.335 87.9654 185.301 87.9316V96.1629H179.775V70.5391H200.128C203.048 70.5391 205.44 72.9265 205.44 75.8121V82.4462H205.446ZM185.307 82.1662H199.848V76.0698H185.307V82.1662Z" fill="white"/>
<path d="M229.661 70.5098C232.58 70.5098 234.973 72.8634 234.973 75.7828V90.8944C234.973 93.8138 232.586 96.1668 229.661 96.1668H209.308V70.5098H229.661ZM214.834 90.6087H229.375V76.0685H214.834V90.6087Z" fill="white"/>
<path d="M238.98 70.5098H244.539V96.1668H238.98V70.5098Z" fill="white"/>
<path d="M267.978 70.5098C270.898 70.5098 273.291 72.8634 273.291 75.7828V96.1668H267.698V87.9023H253.157V96.1668H247.631V75.7828C247.631 72.8634 249.985 70.5098 252.905 70.5098H267.978ZM267.693 82.3385V76.0685H253.151V82.3385H267.693Z" fill="white"/>
<path d="M297.408 70.5098H303.001V96.1668H297.297L282.861 78.9873V96.1668H277.336V70.5098H283.04L297.403 87.6166V70.5098H297.408Z" fill="white"/>
<path d="M61.4221 37.7487V44.3044H47.5025V37.7487H38.9513V11.8452H48.018V18.0871H69.2505L62.7165 12.1645L69.2505 6.26437H56.2835V0H36.0541V37.7543H26.5671V44.31H12.6251V37.7543H0V53.4768H0.0224131L9.99141 63.5906V84.7202L37.0236 100.902L64.0784 84.6921V63.585L74.0245 53.4712H74.0475V37.7487H61.4221ZM41.6074 84.8152H32.4454L34.2273 78.3329C32.2548 77.3353 30.91 75.2846 30.91 72.9202C30.91 69.5581 33.6389 66.8295 37.0292 66.8295C40.4194 66.8295 43.1484 69.5581 43.1484 72.9202C43.1484 75.2846 41.8092 77.3296 39.831 78.3329L41.6074 84.8152Z" fill="white"/>
<path d="M37.0228 108.35L64.3463 91.6016V101.25L37.034 117.993L9.69922 101.25V91.6188L37.0228 108.35Z" fill="#338AE2"/>
</g>
<defs>
<clipPath id="clip0_601_17938">
<rect width="303" height="118" fill="white"/>
</clipPath>
</defs>
</svg>
