<svg width="160" height="31" viewBox="0 0 160 31" fill="none" xmlns="http://www.w3.org/2000/svg">
<path fill-rule="evenodd" clip-rule="evenodd" d="M3.14762 0C4.886 0 6.29523 1.39803 6.29523 3.12259C6.29523 4.84715 4.886 6.24518 3.14762 6.24518C1.40924 6.24518 0 4.84715 0 3.12259C0 1.39803 1.40924 0 3.14762 0ZM21.4038 21.6486V12.9049C21.4038 9.45519 18.5828 6.65992 15.1042 6.65992H9.80002C8.09169 6.65992 6.70569 8.03391 6.70569 9.72744C6.70569 11.421 8.09169 12.795 9.80002 12.795H15.2151V21.7585H6.18867V16.3903C6.18867 14.6968 4.80267 13.3228 3.09434 13.3228C1.38601 13.3228 0 14.6968 0 16.3903V21.6486C0 25.0982 2.81971 27.8935 6.29955 27.8935H15.1042C18.5841 27.8935 21.4038 25.097 21.4038 21.6486Z" fill="url(#paint0_linear_965_14160)"/>
<path d="M38.1303 17.0737C38.9298 17.2213 39.6079 17.6567 40.1647 18.38C40.7215 19.1032 40.9999 19.9224 40.9999 20.8376C40.9999 21.6199 40.8 22.3283 40.4002 22.963C40.0148 23.583 39.4509 24.0774 38.7085 24.4464C37.9661 24.8007 37.1024 24.9778 36.1173 24.9778H30.1641V9.59027H35.8389C36.8526 9.59027 37.7234 9.7674 38.4515 10.1216C39.1796 10.4759 39.7293 10.9556 40.1004 11.5608C40.4716 12.1512 40.6572 12.8154 40.6572 13.5534C40.6572 14.439 40.4288 15.177 39.972 15.7674C39.5151 16.3578 38.9012 16.7933 38.1303 17.0737ZM32.6053 16.0553H35.6248C36.4243 16.0553 37.0453 15.8707 37.4879 15.5017C37.9447 15.118 38.1731 14.5718 38.1731 13.8634C38.1731 13.1696 37.9447 12.6309 37.4879 12.2471C37.0453 11.8486 36.4243 11.6493 35.6248 11.6493H32.6053V16.0553ZM35.9032 22.9188C36.7312 22.9188 37.3808 22.7121 37.8519 22.2988C38.323 21.8855 38.5586 21.3099 38.5586 20.5719C38.5586 19.8191 38.3088 19.2213 37.8091 18.7785C37.3094 18.3357 36.6456 18.1143 35.8175 18.1143H32.6053V22.9188H35.9032Z" fill="white"/>
<path d="M45.0233 14.5497C45.3802 13.9298 45.8513 13.4501 46.4367 13.1106C47.0363 12.7563 47.7429 12.5792 48.5567 12.5792V15.1918H47.9357C46.9792 15.1918 46.2511 15.4427 45.7514 15.9446C45.266 16.4464 45.0233 17.3173 45.0233 18.5571V24.9778H42.582V12.7785H45.0233V14.5497Z" fill="white"/>
<path d="M50.972 11.1622C50.5295 11.1622 50.1583 11.0073 49.8585 10.6973C49.5587 10.3873 49.4088 10.0036 49.4088 9.54599C49.4088 9.08843 49.5587 8.70466 49.8585 8.3947C50.1583 8.08473 50.5295 7.92975 50.972 7.92975C51.4003 7.92975 51.7644 8.08473 52.0642 8.3947C52.364 8.70466 52.5139 9.08843 52.5139 9.54599C52.5139 10.0036 52.364 10.3873 52.0642 10.6973C51.7644 11.0073 51.4003 11.1622 50.972 11.1622ZM52.1713 12.7785V24.9778H49.73V12.7785H52.1713Z" fill="white"/>
<path d="M59.0597 12.5792C59.9734 12.5792 60.78 12.7711 61.4796 13.1549C62.1934 13.5239 62.7502 13.9888 63.1499 14.5497V12.7785H65.6126V25.1771C65.6126 26.2988 65.3842 27.2952 64.9273 28.166C64.4705 29.0516 63.8066 29.7454 62.9358 30.2472C62.0792 30.7491 61.0513 31 59.8521 31C58.2531 31 56.9254 30.6088 55.869 29.8265C54.8125 29.059 54.2129 28.011 54.0701 26.6826H56.49C56.6756 27.3173 57.0682 27.8265 57.6678 28.2103C58.2817 28.6088 59.0098 28.8081 59.8521 28.8081C60.8371 28.8081 61.6295 28.4981 62.2291 27.8782C62.843 27.2583 63.1499 26.3579 63.1499 25.1771V23.1402C62.7359 23.7158 62.172 24.2029 61.4582 24.6014C60.7586 24.9852 59.9591 25.1771 59.0597 25.1771C58.0318 25.1771 57.0896 24.9114 56.233 24.38C55.3907 23.8339 54.7197 23.0811 54.22 22.1217C53.7346 21.1475 53.4919 20.0479 53.4919 18.8228C53.4919 17.5977 53.7346 16.5128 54.22 15.5682C54.7197 14.6235 55.3907 13.8929 56.233 13.3763C57.0896 12.8449 58.0318 12.5792 59.0597 12.5792ZM63.1499 18.8671C63.1499 18.0257 62.9786 17.2951 62.636 16.6752C62.3076 16.0553 61.8722 15.5829 61.3297 15.2582C60.7872 14.9335 60.2018 14.7711 59.5737 14.7711C58.9455 14.7711 58.3602 14.9335 57.8177 15.2582C57.2752 15.5682 56.8326 16.0331 56.49 16.653C56.1616 17.2582 55.9974 17.9815 55.9974 18.8228C55.9974 19.6641 56.1616 20.4021 56.49 21.0368C56.8326 21.6715 57.2752 22.1586 57.8177 22.4981C58.3745 22.8228 58.9598 22.9852 59.5737 22.9852C60.2018 22.9852 60.7872 22.8228 61.3297 22.4981C61.8722 22.1734 62.3076 21.701 62.636 21.0811C62.9786 20.4464 63.1499 19.7084 63.1499 18.8671Z" fill="white"/>
<path d="M73.8515 12.5792C74.7509 12.5792 75.5504 12.7785 76.25 13.177C76.9638 13.5755 77.5206 14.1659 77.9203 14.9482C78.3343 15.7305 78.5413 16.6752 78.5413 17.7822V24.9778H76.1215V18.1586C76.1215 17.0663 75.8574 16.2324 75.3291 15.6567C74.8009 15.0663 74.08 14.7711 73.1663 14.7711C72.2526 14.7711 71.5245 15.0663 70.982 15.6567C70.4538 16.2324 70.1896 17.0663 70.1896 18.1586V24.9778H67.7484V8.59396H70.1896V14.1955C70.6037 13.6789 71.1247 13.2803 71.7529 12.9999C72.3953 12.7194 73.0949 12.5792 73.8515 12.5792Z" fill="white"/>
<path d="M83.4327 14.8375V21.5903C83.4327 22.0479 83.5327 22.38 83.7325 22.5867C83.9467 22.7785 84.3036 22.8745 84.8033 22.8745H86.3023V24.9778H84.375C83.2757 24.9778 82.4334 24.7121 81.8481 24.1808C81.2627 23.6494 80.9701 22.7859 80.9701 21.5903V14.8375H79.5781V12.7785H80.9701V9.74526H83.4327V12.7785H86.3023V14.8375H83.4327Z" fill="white"/>
<path d="M96.2402 9.59027V11.6493H89.9229V16.1881H94.8482V18.2471H89.9229V24.9778H87.4816V9.59027H96.2402Z" fill="white"/>
<path d="M108.118 12.7785V24.9778H105.676V23.5387C105.291 24.0405 104.784 24.4391 104.156 24.7343C103.542 25.0147 102.885 25.1549 102.186 25.1549C101.258 25.1549 100.423 24.9557 99.6804 24.5571C98.9523 24.1586 98.3741 23.5682 97.9458 22.7859C97.5318 22.0036 97.3248 21.059 97.3248 19.952V12.7785H99.7446V19.5756C99.7446 20.6678 100.009 21.5092 100.537 22.0996C101.065 22.6752 101.786 22.963 102.7 22.963C103.614 22.963 104.335 22.6752 104.863 22.0996C105.405 21.5092 105.676 20.6678 105.676 19.5756V12.7785H108.118Z" fill="white"/>
<path d="M116.221 12.5792C117.149 12.5792 117.977 12.7785 118.705 13.177C119.448 13.5755 120.026 14.1659 120.44 14.9482C120.854 15.7305 121.061 16.6752 121.061 17.7822V24.9778H118.641V18.1586C118.641 17.0663 118.377 16.2324 117.849 15.6567C117.321 15.0663 116.6 14.7711 115.686 14.7711C114.772 14.7711 114.044 15.0663 113.502 15.6567C112.973 16.2324 112.709 17.0663 112.709 18.1586V24.9778H110.268V12.7785H112.709V14.1733C113.109 13.6715 113.616 13.2803 114.23 12.9999C114.858 12.7194 115.522 12.5792 116.221 12.5792Z" fill="white"/>
<path d="M122.291 18.8228C122.291 17.5977 122.533 16.5128 123.019 15.5682C123.518 14.6235 124.189 13.8929 125.032 13.3763C125.888 12.8449 126.838 12.5792 127.88 12.5792C128.651 12.5792 129.407 12.7563 130.15 13.1106C130.906 13.4501 131.506 13.9076 131.949 14.4833V8.59396H134.411V24.9778H131.949V23.1402C131.549 23.7306 130.992 24.2177 130.278 24.6014C129.579 24.9852 128.772 25.1771 127.858 25.1771C126.83 25.1771 125.888 24.9114 125.032 24.38C124.189 23.8339 123.518 23.0811 123.019 22.1217C122.533 21.1475 122.291 20.0479 122.291 18.8228ZM131.949 18.8671C131.949 18.0257 131.777 17.2951 131.435 16.6752C131.106 16.0553 130.671 15.5829 130.128 15.2582C129.586 14.9335 129 14.7711 128.372 14.7711C127.744 14.7711 127.159 14.9335 126.616 15.2582C126.074 15.5682 125.631 16.0331 125.289 16.653C124.96 17.2582 124.796 17.9815 124.796 18.8228C124.796 19.6641 124.96 20.4021 125.289 21.0368C125.631 21.6715 126.074 22.1586 126.616 22.4981C127.173 22.8228 127.758 22.9852 128.372 22.9852C129 22.9852 129.586 22.8228 130.128 22.4981C130.671 22.1734 131.106 21.701 131.435 21.0811C131.777 20.4464 131.949 19.7084 131.949 18.8671Z" fill="white"/>
<path d="M147.361 18.5792C147.361 19.0368 147.333 19.4501 147.276 19.8191H138.26C138.332 20.7933 138.681 21.5756 139.309 22.166C139.938 22.7564 140.709 23.0516 141.622 23.0516C142.936 23.0516 143.864 22.4833 144.406 21.3468H147.04C146.683 22.4686 146.034 23.3911 145.091 24.1143C144.163 24.8228 143.007 25.1771 141.622 25.1771C140.494 25.1771 139.481 24.9188 138.581 24.4022C137.696 23.8708 136.997 23.1328 136.483 22.1881C135.983 21.2287 135.733 20.1217 135.733 18.8671C135.733 17.6125 135.976 16.5128 136.461 15.5682C136.961 14.6088 137.653 13.8707 138.539 13.3541C139.438 12.8375 140.466 12.5792 141.622 12.5792C142.736 12.5792 143.728 12.8301 144.599 13.332C145.47 13.8338 146.148 14.5423 146.633 15.4575C147.119 16.3578 147.361 17.3984 147.361 18.5792ZM144.813 17.7822C144.799 16.8523 144.478 16.1069 143.849 15.546C143.221 14.9851 142.443 14.7047 141.515 14.7047C140.673 14.7047 139.952 14.9851 139.352 15.546C138.753 16.0922 138.396 16.8375 138.282 17.7822H144.813Z" fill="white"/>
<path d="M147.879 18.8228C147.879 17.5977 148.122 16.5128 148.607 15.5682C149.107 14.6235 149.778 13.8929 150.62 13.3763C151.477 12.8449 152.426 12.5792 153.469 12.5792C154.239 12.5792 154.996 12.7563 155.738 13.1106C156.495 13.4501 157.095 13.9076 157.537 14.4833V8.59396H160V24.9778H157.537V23.1402C157.138 23.7306 156.581 24.2177 155.867 24.6014C155.167 24.9852 154.361 25.1771 153.447 25.1771C152.419 25.1771 151.477 24.9114 150.62 24.38C149.778 23.8339 149.107 23.0811 148.607 22.1217C148.122 21.1475 147.879 20.0479 147.879 18.8228ZM157.537 18.8671C157.537 18.0257 157.366 17.2951 157.023 16.6752C156.695 16.0553 156.26 15.5829 155.717 15.2582C155.175 14.9335 154.589 14.7711 153.961 14.7711C153.333 14.7711 152.748 14.9335 152.205 15.2582C151.663 15.5682 151.22 16.0331 150.877 16.653C150.549 17.2582 150.385 17.9815 150.385 18.8228C150.385 19.6641 150.549 20.4021 150.877 21.0368C151.22 21.6715 151.663 22.1586 152.205 22.4981C152.762 22.8228 153.347 22.9852 153.961 22.9852C154.589 22.9852 155.175 22.8228 155.717 22.4981C156.26 22.1734 156.695 21.701 157.023 21.0811C157.366 20.4464 157.537 19.7084 157.537 18.8671Z" fill="white"/>
<defs>
<linearGradient id="paint0_linear_965_14160" x1="1.56473" y1="29.4999" x2="20.0807" y2="4.62035" gradientUnits="userSpaceOnUse">
<stop stop-color="#0781FE"/>
<stop offset="1" stop-color="#00C7B4"/>
</linearGradient>
</defs>
</svg>
