<svg width="122" height="25" viewBox="0 0 122 25" fill="none" xmlns="http://www.w3.org/2000/svg">
<path d="M29.9069 5.4506H38.9542V7.9338H32.7944V10.956H37.7992V13.3237H32.7944V16.4421H39.166V18.9253H29.9069V5.4506ZM47.9686 11.8992C48.7771 12.066 49.4444 12.4318 49.9705 12.9964C50.5095 13.5611 50.779 14.3182 50.779 15.2679C50.779 16.0122 50.5737 16.6731 50.163 17.2506C49.7652 17.8152 49.1749 18.258 48.3921 18.5788C47.6221 18.8868 46.6917 19.0408 45.6009 19.0408C44.5101 19.0408 43.5733 18.8868 42.7904 18.5788C42.0205 18.258 41.4301 17.8152 41.0195 17.2506C40.6217 16.6731 40.4227 16.0122 40.4227 15.2679C40.4227 14.3311 40.6858 13.5803 41.212 13.0157C41.7381 12.451 42.4119 12.0789 43.2332 11.8992C42.5402 11.7067 41.9627 11.3538 41.5007 10.8405C41.0387 10.3272 40.8077 9.67267 40.8077 8.87703C40.8077 8.17121 40.9938 7.54881 41.366 7.00982C41.751 6.47083 42.3028 6.05376 43.0214 5.7586C43.7529 5.46344 44.6127 5.31586 45.6009 5.31586C46.589 5.31586 47.4424 5.46344 48.1611 5.7586C48.8926 6.05376 49.4444 6.47083 49.8165 7.00982C50.2015 7.54881 50.394 8.17121 50.394 8.87703C50.394 9.62134 50.1566 10.2694 49.6818 10.8212C49.2198 11.3602 48.6487 11.7195 47.9686 11.8992ZM45.6009 7.27931C44.9849 7.27931 44.4844 7.43973 44.0994 7.76055C43.7144 8.08138 43.5219 8.49845 43.5219 9.01177C43.5219 9.53793 43.7144 9.96783 44.0994 10.3015C44.4844 10.6223 44.9849 10.7827 45.6009 10.7827C46.204 10.7827 46.6981 10.6159 47.0831 10.2822C47.4809 9.94858 47.6798 9.52509 47.6798 9.01177C47.6798 8.49845 47.4809 8.08138 47.0831 7.76055C46.6981 7.43973 46.204 7.27931 45.6009 7.27931ZM45.6009 17.0966C46.281 17.0966 46.8521 16.9105 47.3141 16.5383C47.7761 16.1534 48.0071 15.6721 48.0071 15.0946C48.0071 14.5043 47.7761 14.0167 47.3141 13.6317C46.8521 13.2338 46.281 13.0349 45.6009 13.0349C44.9079 13.0349 44.3304 13.2338 43.8684 13.6317C43.4064 14.0167 43.1754 14.5043 43.1754 15.0946C43.1754 15.6721 43.4064 16.1534 43.8684 16.5383C44.3304 16.9105 44.9079 17.0966 45.6009 17.0966ZM52.8464 5.4506H54.1746L59.4105 17.5201L64.6079 5.4506H65.9168V18.9253H64.8966V7.20231L59.8532 18.9253H58.91L53.8666 7.20231V18.9253H52.8464V5.4506ZM77.452 18.0206V18.9253H76.8745C76.3098 18.9253 75.8928 18.7841 75.6233 18.5018C75.3666 18.2195 75.2511 17.8217 75.2768 17.3083V16.9041C74.9816 17.5586 74.5196 18.0783 73.8908 18.4633C73.262 18.8483 72.4792 19.0408 71.5424 19.0408C70.4901 19.0408 69.6495 18.7905 69.0207 18.2901C68.3918 17.7896 68.0774 17.1094 68.0774 16.2496C68.0774 15.3256 68.4047 14.6134 69.0592 14.1129C69.7265 13.5996 70.6825 13.3429 71.9274 13.3429H75.2383V12.4959C75.2383 11.6875 74.9816 11.0586 74.4683 10.6095C73.9678 10.1475 73.262 9.9165 72.3508 9.9165C71.5424 9.9165 70.8815 10.0962 70.3681 10.4555C69.8676 10.8148 69.5532 11.2961 69.4249 11.8992H68.4432C68.5715 11.0137 68.9822 10.3207 69.6752 9.82025C70.3681 9.30693 71.2729 9.05027 72.3893 9.05027C73.6085 9.05027 74.5517 9.35185 75.219 9.955C75.8863 10.5582 76.22 11.418 76.22 12.5344V17.0773C76.22 17.3725 76.297 17.6035 76.451 17.7703C76.605 17.9371 76.8167 18.0206 77.0862 18.0206H77.452ZM75.2383 14.1899H71.8504C70.952 14.1899 70.2655 14.3631 69.7906 14.7096C69.3158 15.0561 69.0784 15.5502 69.0784 16.1919C69.0784 16.795 69.303 17.2827 69.7522 17.6548C70.2141 18.0141 70.8301 18.1938 71.6001 18.1938C72.7294 18.1938 73.6149 17.8987 74.2565 17.3083C74.911 16.7052 75.2383 15.9288 75.2383 14.9791V14.1899ZM83.1913 9.16577V10.109H82.5561C81.5038 10.109 80.7723 10.4683 80.3617 11.187C79.951 11.8928 79.7457 12.8232 79.7457 13.9782V18.9253H78.7639V9.16577H79.6109L79.7649 11.11C79.9959 10.5068 80.3424 10.032 80.8044 9.68551C81.2664 9.33901 81.9145 9.16577 82.7486 9.16577H83.1913ZM84.7606 5.4506H85.7424V15.0561L91.4402 9.16577H92.6337L88.726 13.2082L92.9609 18.9253H91.7675L88.0331 13.9204L85.7424 16.2689V18.9253H84.7606V5.4506ZM93.513 14.0359C93.513 13.0606 93.6991 12.1944 94.0713 11.4372C94.4562 10.6801 94.9888 10.0962 95.669 9.68551C96.362 9.26202 97.1448 9.05027 98.0174 9.05027C98.8772 9.05027 99.6408 9.23635 100.308 9.60851C100.975 9.96783 101.502 10.494 101.887 11.187C102.284 11.88 102.496 12.7013 102.522 13.6509C102.522 13.8306 102.515 13.9653 102.503 14.0552H94.5525C94.5397 14.1065 94.5332 14.1835 94.5332 14.2862C94.5461 15.0433 94.7065 15.717 95.0145 16.3074C95.3225 16.8848 95.746 17.3404 96.285 17.6741C96.8239 17.9949 97.4335 18.1553 98.1137 18.1553C98.9093 18.1553 99.6023 17.9371 100.193 17.5008C100.783 17.0517 101.174 16.4485 101.367 15.6914H102.368C102.137 16.6923 101.643 17.5008 100.886 18.1168C100.141 18.7328 99.243 19.0408 98.1907 19.0408C97.2795 19.0408 96.4646 18.829 95.746 18.4056C95.0401 17.9821 94.4883 17.3917 94.0905 16.6346C93.7055 15.8774 93.513 15.0112 93.513 14.0359ZM101.502 13.2274C101.412 12.1751 101.052 11.3602 100.424 10.7827C99.8076 10.2052 99.012 9.9165 98.0367 9.9165C97.4463 9.9165 96.9009 10.0577 96.4005 10.34C95.9 10.6095 95.4893 10.9945 95.1685 11.495C94.8477 11.9955 94.6616 12.5729 94.6102 13.2274H101.502ZM105.003 10.0705H103.155V9.16577H105.003V6.43233H105.985V9.16577H108.583V10.0705H105.985V16.6346C105.985 17.1351 106.087 17.4944 106.293 17.7126C106.498 17.9179 106.845 18.0206 107.332 18.0206H108.757V18.9253H107.294C106.472 18.9253 105.882 18.7456 105.523 18.3863C105.176 18.027 105.003 17.4495 105.003 16.6538V10.0705ZM110.736 15.9224C110.775 16.6282 111.076 17.1864 111.641 17.5971C112.205 17.9949 112.95 18.1938 113.874 18.1938C114.682 18.1938 115.35 18.0206 115.876 17.6741C116.402 17.3276 116.665 16.872 116.665 16.3074C116.665 15.8582 116.537 15.5117 116.28 15.2679C116.036 15.0112 115.715 14.8316 115.317 14.7289C114.92 14.6134 114.387 14.5043 113.72 14.4016C112.898 14.2862 112.231 14.1578 111.718 14.0167C111.205 13.8627 110.781 13.6124 110.447 13.2659C110.114 12.9194 109.947 12.4382 109.947 11.8222C109.947 11.2832 110.101 10.802 110.409 10.3785C110.73 9.955 111.16 9.62776 111.699 9.39676C112.25 9.15294 112.873 9.03102 113.566 9.03102C114.682 9.03102 115.587 9.28127 116.28 9.78175C116.986 10.2694 117.384 10.9816 117.473 11.9185H116.492C116.402 11.2896 116.094 10.7956 115.568 10.4362C115.054 10.0641 114.406 9.878 113.624 9.878C112.815 9.878 112.161 10.0512 111.66 10.3977C111.16 10.7442 110.909 11.1934 110.909 11.7452C110.909 12.1687 111.031 12.4959 111.275 12.7269C111.532 12.9579 111.84 13.1183 112.199 13.2082C112.558 13.298 113.078 13.3878 113.758 13.4777C114.592 13.5932 115.279 13.7407 115.818 13.9204C116.357 14.0872 116.793 14.3567 117.127 14.7289C117.473 15.101 117.647 15.608 117.647 16.2496C117.647 17.0966 117.281 17.7767 116.549 18.2901C115.831 18.7905 114.939 19.0408 113.874 19.0408C112.642 19.0408 111.654 18.7713 110.909 18.2323C110.165 17.6805 109.78 16.9105 109.754 15.9224H110.736Z" fill="white"/>
<path d="M119.088 7.7749H118.796V6.64324H118.423V6.40074H119.461V6.64324H119.088V7.7749ZM120.254 7.7749L119.923 6.69681H119.915C119.916 6.72251 119.918 6.76136 119.921 6.81336C119.924 6.86475 119.927 6.91958 119.929 6.97785C119.932 7.03613 119.933 7.08876 119.933 7.13576V7.7749H119.672V6.40074H120.069L120.394 7.45157H120.4L120.745 6.40074H121.142V7.7749H120.87V7.12448C120.87 7.08124 120.871 7.03143 120.872 6.97503C120.874 6.91864 120.876 6.86506 120.878 6.8143C120.881 6.76292 120.883 6.72439 120.884 6.69869H120.876L120.521 7.7749H120.254Z" fill="white"/>
<g clip-path="url(#clip0_2482_1236)">
<path d="M0.00656184 16.662C-0.126281 20.089 2.2832 23.1363 5.823 23.887C6.11044 23.9501 6.44255 23.9914 6.73457 24.0251C7.35985 24.0785 8.98602 24.0545 9.62618 24.0589C10.5733 24.0436 12.2017 24.1198 13.127 23.9425C15.9866 23.4866 18.4029 21.302 19.042 18.6181C19.1015 18.4201 19.1714 17.9664 19.2011 17.7532C19.2252 17.5127 19.2298 17.2669 19.2447 17.0253C19.247 17.0166 19.2458 15.9788 19.2458 14.9376L18.8885 14.8843C18.6984 14.856 17.7467 14.7102 16.4973 14.5187V16.9002C16.4962 16.9372 16.4973 16.9851 16.4962 17.0145C16.4676 19.5418 14.2917 21.5164 11.6349 21.4478C10.4358 21.4369 8.38021 21.4696 7.18807 21.4337C7.00598 21.4359 6.78954 21.3989 6.60974 21.3728C6.47232 21.3597 6.18259 21.2792 6.04402 21.2466C4.49686 20.7864 3.24402 19.5287 2.88558 18.0197C2.78709 17.6542 2.7619 17.2778 2.75503 16.9002V13.94C4.50374 13.6712 7.4778 13.2165 8.98144 12.9869C9.55175 12.8988 9.91019 12.8444 9.91019 12.8444C9.77162 12.8237 9.44066 12.7726 8.98029 12.7019C8.03551 12.5572 6.54447 12.3298 5.04541 12.0992C2.68975 11.7391 0.314619 11.3746 0.00656184 11.3289C0.00541664 11.7369 0.00541664 12.53 0.00656184 13.3949C0.00656184 14.6439 0.00656184 16.044 0.00656184 16.662Z" fill="white"/>
<path d="M0.362573 9.17899C0.552676 9.20728 1.50319 9.35306 2.75488 9.54454V7.4013C2.75832 7.31209 2.74916 7.13802 2.75488 7.04881C2.78237 4.52261 4.95938 2.54692 7.61508 2.61546C8.81524 2.62634 10.8709 2.5937 12.0619 2.6296C12.2451 2.62851 12.4615 2.66441 12.6413 2.69052C12.7776 2.70358 13.0673 2.78409 13.2071 2.81673C14.7531 3.27692 16.0059 4.53458 16.3655 6.04355C16.464 6.4091 16.488 6.78553 16.4961 7.16304V10.1233C14.7462 10.392 11.7721 10.8468 10.2696 11.0764C9.69933 11.1645 9.34089 11.2189 9.34089 11.2189C9.47831 11.2395 9.80927 11.2907 10.2696 11.3614C11.2144 11.5061 12.7066 11.7335 14.2057 11.9641C16.5625 12.3253 18.9376 12.6887 19.2468 12.7344V10.6684C19.2457 9.41943 19.2457 8.01925 19.2468 7.4013C19.3785 3.97429 16.969 0.926975 13.4304 0.176298C13.1418 0.113197 12.8108 0.0718552 12.5177 0.038129C11.8935 -0.01518 10.2662 0.00984291 9.62719 0.00440321C8.68011 0.0196344 7.05165 -0.0565206 6.12633 0.120813C3.26564 0.57666 0.848136 2.76124 0.211409 5.44519C0.150714 5.64319 0.0808558 6.09686 0.0510808 6.3101C0.0270317 6.55053 0.0224515 6.79641 0.00870918 7.03902C0.0064188 7.04663 0.00870918 8.08453 0.00870918 9.12568L0.364864 9.17899H0.362573Z" fill="white"/>
</g>
<defs>
<clipPath id="clip0_2482_1236">
<rect width="19.2496" height="24.0619" fill="white" transform="matrix(-1 0 0 -1 19.25 24.062)"/>
</clipPath>
</defs>
</svg>
