<?xml version="1.0" encoding="UTF-8"?> <svg xmlns="http://www.w3.org/2000/svg" xmlns:xlink="http://www.w3.org/1999/xlink" version="1.1" id="Layer_1" x="0px" y="0px" viewBox="0 0 1511.21 343.34" style="enable-background:new 0 0 1511.21 343.34;" xml:space="preserve"> <style type="text/css"> .st0{clip-path:url(#SVGID_2_);fill:url(#SVGID_3_);} .st1{clip-path:url(#SVGID_5_);fill:url(#SVGID_6_);} .st2{fill:none;} .st3{clip-path:url(#SVGID_8_);fill:url(#SVGID_9_);} .st4{clip-path:url(#SVGID_11_);fill:url(#SVGID_12_);} .st5{clip-path:url(#SVGID_14_);fill:url(#SVGID_15_);} .st6{clip-path:url(#SVGID_17_);fill:url(#SVGID_18_);} .st7{clip-path:url(#SVGID_20_);fill:url(#SVGID_21_);} .st8{clip-path:url(#SVGID_23_);fill:url(#SVGID_24_);} .st9{clip-path:url(#SVGID_26_);fill:url(#SVGID_27_);} .st10{clip-path:url(#SVGID_29_);fill:url(#SVGID_30_);} .st11{clip-path:url(#SVGID_32_);fill:url(#SVGID_33_);} .st12{clip-path:url(#SVGID_35_);fill:url(#SVGID_36_);} .st13{clip-path:url(#SVGID_38_);fill:url(#SVGID_39_);} .st14{fill:#FFFFFF;} </style> <g> <defs> <path id="SVGID_22_" d="M446.77,257.03c-0.09,0.08-0.19,0.17-0.29,0.25c0.1-0.09,0.2-0.17,0.3-0.25H446.77z"></path> </defs> <clipPath id="SVGID_2_"> <use xlink:href="#SVGID_22_" style="overflow:visible;"></use> </clipPath> <linearGradient id="SVGID_3_" gradientUnits="userSpaceOnUse" x1="10410.0781" y1="7701.8804" x2="10411.0781" y2="7701.8804" gradientTransform="matrix(0.3038 0 0 -0.3038 -2716.3174 2597.1465)"> <stop offset="0" style="stop-color:#D16751"></stop> <stop offset="0.3026" style="stop-color:#A87156"></stop> <stop offset="0.7381" style="stop-color:#717F5D"></stop> <stop offset="0.9497" style="stop-color:#5C8460"></stop> <stop offset="1" style="stop-color:#5C8460"></stop> </linearGradient> <rect x="446.48" y="257.03" class="st0" width="0.3" height="0.25"></rect> </g> <rect x="-276.05" y="-638.1" class="st2" width="2063.31" height="1619.55"></rect> <g> <g> <defs> <path id="SVGID_25_" d="M96.36,171.55c-0.09,0.08-0.19,0.17-0.29,0.25c0.1-0.09,0.2-0.17,0.3-0.25H96.36z"></path> </defs> <clipPath id="SVGID_5_"> <use xlink:href="#SVGID_25_" style="overflow:visible;"></use> </clipPath> <linearGradient id="SVGID_6_" gradientUnits="userSpaceOnUse" x1="9256.7217" y1="7983.2456" x2="9257.7227" y2="7983.2456" gradientTransform="matrix(0.3038 0 0 -0.3038 -2716.3174 2597.1465)"> <stop offset="0" style="stop-color:#D16751"></stop> <stop offset="0.3026" style="stop-color:#A87156"></stop> <stop offset="0.7381" style="stop-color:#717F5D"></stop> <stop offset="0.9497" style="stop-color:#5C8460"></stop> <stop offset="1" style="stop-color:#5C8460"></stop> </linearGradient> <rect x="96.06" y="171.55" class="st1" width="0.3" height="0.25"></rect> </g> <g> <defs> <path id="SVGID_28_" d="M188.27,171.55c-0.09,0.08-0.19,0.17-0.29,0.25c0.1-0.09,0.2-0.17,0.3-0.25H188.27z"></path> </defs> <clipPath id="SVGID_8_"> <use xlink:href="#SVGID_28_" style="overflow:visible;"></use> </clipPath> <linearGradient id="SVGID_9_" gradientUnits="userSpaceOnUse" x1="9559.252" y1="7983.2456" x2="9560.2529" y2="7983.2456" gradientTransform="matrix(0.3038 0 0 -0.3038 -2716.3174 2597.1465)"> <stop offset="0" style="stop-color:#D16751"></stop> <stop offset="0.3026" style="stop-color:#A87156"></stop> <stop offset="0.7381" style="stop-color:#717F5D"></stop> <stop offset="0.9497" style="stop-color:#5C8460"></stop> <stop offset="1" style="stop-color:#5C8460"></stop> </linearGradient> <rect x="187.98" y="171.55" class="st3" width="0.3" height="0.25"></rect> </g> <g> <g> <g> <defs> <path id="SVGID_31_" d="M177.44,171.83L177.44,171.83L177.44,171.83C177.45,171.82,177.45,171.82,177.44,171.83 C177.45,171.82,177.44,171.83,177.44,171.83L177.44,171.83C177.44,171.83,177.44,171.83,177.44,171.83 M190.28,150.54 c0,0.03,0,0.05-0.01,0.06h-0.04C190.25,150.57,190.27,150.55,190.28,150.54 M108.44,125.93c-4.83,0.18-9.65,0.69-14.25,2.14 c-2.57,3.04-4.49,7.31-2.54,12.66c4.11,11.31,32.6,46.37,32.6,46.36l-2.73-4.41H145c8.02,0,16.46,0.51,23.74-3.46 c6.04-3.29,10.63-8.54,14.35-14.23c1.34-2.05,2.58-4.16,3.77-6.3c6.02-10.8,11.94-21.91,18.42-32.53 c0.05-0.08,0.1-0.18,0.15-0.28h-2.69h-7.3h-10.77h-13.09H157.3h-14.29c-8.85,0-17.7-0.03-26.56-0.04c-0.57,0-1.14,0-1.72,0 C112.64,125.84,110.54,125.85,108.44,125.93"></path> </defs> <clipPath id="SVGID_11_"> <use xlink:href="#SVGID_31_" style="overflow:visible;"></use> </clipPath> <linearGradient id="SVGID_12_" gradientUnits="userSpaceOnUse" x1="-4931.3696" y1="2550.4429" x2="-4931.144" y2="2550.4429" gradientTransform="matrix(508.304 0 0 -508.304 2506725.5 1296556.75)"> <stop offset="0" style="stop-color:#63A89D"></stop> <stop offset="0.327" style="stop-color:#5BA297"></stop> <stop offset="0.8301" style="stop-color:#469085"></stop> <stop offset="0.9944" style="stop-color:#3D897E"></stop> <stop offset="1" style="stop-color:#3D897E"></stop> </linearGradient> <rect x="89.7" y="125.84" class="st4" width="115.71" height="61.26"></rect> </g> <g> <defs> <path id="SVGID_34_" d="M53.83,64.27C45.61,69.39,40.88,77.9,36.26,86.1c-6.17,10.95-12.27,21.95-18.39,32.93h174.3 c10.83,0,20.87-5.63,26.52-14.87l27.5-44.95h-1.76h-4.74h-7.35h-9.56c-45.93,0-91.86-0.06-137.79-0.13 c-1.35,0-2.74-0.01-4.14-0.01C71.66,59.08,61.58,59.44,53.83,64.27"></path> </defs> <clipPath id="SVGID_14_"> <use xlink:href="#SVGID_34_" style="overflow:visible;"></use> </clipPath> <linearGradient id="SVGID_15_" gradientUnits="userSpaceOnUse" x1="-4935.2207" y1="2548.7305" x2="-4934.9951" y2="2548.7305" gradientTransform="matrix(1013.0367 0 0 -1013.0367 4999577.5 2582046.5)"> <stop offset="0" style="stop-color:#135052"></stop> <stop offset="0.2207" style="stop-color:#165455"></stop> <stop offset="0.4242" style="stop-color:#1E5F5E"></stop> <stop offset="0.6211" style="stop-color:#2B726D"></stop> <stop offset="0.8126" style="stop-color:#3D8C82"></stop> <stop offset="1" style="stop-color:#55AD9D"></stop> </linearGradient> <rect x="17.87" y="59.08" class="st5" width="228.32" height="59.95"></rect> </g> </g> <g> <defs> <path id="SVGID_37_" d="M113.93,284.26C113.93,284.26,113.93,284.26,113.93,284.26C113.93,284.26,113.93,284.26,113.93,284.26 M142.62,230.49C142.62,230.5,142.62,230.5,142.62,230.49c0.01,0,0.01-0.01,0.01-0.01 C142.62,230.49,142.62,230.49,142.62,230.49 M97.11,251.68c0,0.01,0.01,0.01,0.01,0.01c0,0-0.01,0.01-0.01,0.01 C97.11,251.7,97.11,251.69,97.11,251.68 M91.46,243.12h0.02c0,0.01-0.01,0.01-0.01,0.02C91.46,243.14,91.46,243.13,91.46,243.12 M142.05,230.99c0.02,0,0.03,0.01,0.05,0.02c0,0.01,0,0.02-0.01,0.02C142.09,231.01,142.07,231,142.05,230.99 M143.12,226.86 v0.03l-0.01,0.01C143.11,226.89,143.12,226.87,143.12,226.86 M63.56,161.69C63.56,161.69,63.56,161.68,63.56,161.69 c0.01-0.01,0.02-0.02,0.03-0.03c0,0,0,0.01,0,0.01C63.58,161.68,63.57,161.69,63.56,161.69 C63.56,161.69,63.56,161.69,63.56,161.69 M63.59,159.9c0.02,0.01,0.04,0.01,0.05,0.02c-0.02,0.01-0.04,0.02-0.05,0.03V159.9z M68.73,149.33v0.01h-0.01C68.72,149.34,68.73,149.33,68.73,149.33 M76.29,140.41c0.02-0.02,0.05-0.05,0.07-0.07 c0.05,0.05,0.11,0.1,0.17,0.16C76.45,140.46,76.37,140.43,76.29,140.41 M82.96,133.8C82.96,133.8,82.96,133.8,82.96,133.8 C82.96,133.8,82.96,133.8,82.96,133.8L82.96,133.8z M87.93,130.7c-1.08,0.55-2.15,1.16-3.2,1.81 c-14.76,9.14-24,25.91-24.33,43.2c-0.18,9.28,2.57,17.94,6.8,26.08c8.16,15.75,17.43,30.89,26.43,46.17 c6.83,11.61,13.26,23.43,19.74,35.24c0.05,0.09,0.63,0.96,0.58,1.06c3.72-6.73,7.43-13.45,11.15-20.18 c3.55-6.43,7.19-12.82,10.75-19.25c3.27-5.9,7.32-12.04,7.32-19.03c-0.01-11.45-7.42-21.73-13.31-31.01 c-6.69-10.54-14-20.66-21.17-30.88c-3.73-5.32-7.57-10.58-11.23-15.96c-1.55-2.28-3.66-4.84-4.85-7.54 c-0.36-0.82-0.63-1.65-0.78-2.49c-0.64-3.64,0.81-7.42,3.23-10.12C92.63,128.57,90.21,129.53,87.93,130.7"></path> </defs> <clipPath id="SVGID_17_"> <use xlink:href="#SVGID_37_" style="overflow:visible;"></use> </clipPath> <linearGradient id="SVGID_18_" gradientUnits="userSpaceOnUse" x1="-4927.9253" y1="2552.0505" x2="-4927.6997" y2="2552.0505" gradientTransform="matrix(367.2638 0 0 -367.2638 1809908.75 937481.6875)"> <stop offset="0" style="stop-color:#D16751"></stop> <stop offset="0.3026" style="stop-color:#A87156"></stop> <stop offset="0.7381" style="stop-color:#717F5D"></stop> <stop offset="0.9497" style="stop-color:#5C8460"></stop> <stop offset="1" style="stop-color:#5C8460"></stop> </linearGradient> <rect x="60.21" y="127.8" class="st6" width="82.94" height="156.46"></rect> </g> </g> <g> <path class="st14" d="M296.96,199.91v-77.38h52.25v13.24h-35.99v21.99h28.04v13.02h-28.04v29.13H296.96z"></path> <path class="st14" d="M369.85,144.47v31.77c0,1.77,0.13,3.48,0.38,5.13c0.25,1.66,0.75,3.13,1.49,4.43 c0.74,1.3,1.76,2.34,3.05,3.13c1.3,0.79,2.99,1.19,5.08,1.19c1.69,0,3.33-0.41,4.92-1.24c1.58-0.83,2.98-2.04,4.19-3.62 c1.21-1.58,2.18-3.55,2.92-5.89c0.74-2.34,1.11-5.01,1.11-8v-26.91h15.4v55.44h-10.75l-2.65-12.91c-0.86,2.34-2.03,4.42-3.49,6.24 c-1.46,1.82-3.13,3.35-5,4.59c-1.87,1.24-3.88,2.19-6.02,2.84c-2.14,0.65-4.35,0.97-6.62,0.97c-3.89,0-7.1-0.7-9.62-2.11 c-2.52-1.4-4.51-3.24-5.97-5.51s-2.47-4.84-3.03-7.7c-0.56-2.86-0.84-5.75-0.84-8.67v-33.18H369.85z"></path> <path class="st14" d="M461.17,199.91v-31.29c0-1.95-0.13-3.78-0.41-5.51c-0.27-1.73-0.77-3.24-1.51-4.54 c-0.74-1.3-1.77-2.33-3.08-3.11c-1.32-0.77-3.02-1.16-5.11-1.16c-1.69,0-3.32,0.42-4.89,1.27c-1.57,0.85-2.95,2.05-4.16,3.62 c-1.21,1.57-2.17,3.49-2.89,5.78c-0.72,2.29-1.08,4.85-1.08,7.7v27.23h-15.45v-55.44h10.81l2.65,12.91 c0.9-2.38,2.07-4.48,3.51-6.3c1.44-1.82,3.08-3.34,4.92-4.57c1.84-1.22,3.82-2.15,5.94-2.78c2.13-0.63,4.32-0.95,6.59-0.95 c3.89,0,7.11,0.69,9.65,2.08c2.54,1.39,4.55,3.22,6.02,5.51c1.48,2.29,2.5,4.88,3.08,7.78c0.58,2.9,0.86,5.86,0.86,8.89v32.85 H461.17z"></path> <path class="st14" d="M531.14,199.91l-2.32-10.16c-0.76,1.73-1.79,3.32-3.11,4.78c-1.32,1.46-2.82,2.71-4.51,3.76 c-1.69,1.05-3.58,1.85-5.65,2.43c-2.07,0.58-4.24,0.86-6.51,0.86c-3.64,0-6.87-0.69-9.7-2.08c-2.83-1.39-5.23-3.36-7.21-5.92 c-1.98-2.56-3.49-5.65-4.51-9.27c-1.03-3.62-1.54-7.66-1.54-12.13c0-4.68,0.51-8.85,1.54-12.51c1.03-3.66,2.52-6.74,4.49-9.24 c1.96-2.5,4.35-4.4,7.16-5.7c2.81-1.3,6-1.95,9.56-1.95c2.3,0,4.45,0.26,6.43,0.78c1.98,0.52,3.76,1.23,5.32,2.11 c1.57,0.88,2.92,1.93,4.05,3.13c1.13,1.21,2.03,2.48,2.67,3.81v-30.85h15.4v78.13H531.14z M527.31,172.24 c0-3.39-0.34-6.24-1.03-8.56c-0.68-2.32-1.61-4.21-2.78-5.67c-1.17-1.46-2.54-2.51-4.11-3.16c-1.57-0.65-3.22-0.97-4.94-0.97 c-1.87,0-3.58,0.33-5.13,1c-1.55,0.67-2.87,1.73-3.97,3.19c-1.1,1.46-1.95,3.35-2.54,5.67c-0.59,2.32-0.89,5.12-0.89,8.4 c0,6.12,1.12,10.71,3.35,13.75c2.23,3.04,5.33,4.57,9.29,4.57c3.89,0,6.99-1.52,9.29-4.57 C526.15,182.84,527.31,178.29,527.31,172.24z"></path> <path class="st14" d="M595.66,181.05l10.81,3.89c-1.12,2.49-2.44,4.76-3.97,6.81c-1.53,2.05-3.3,3.81-5.3,5.27 c-2,1.46-4.26,2.59-6.78,3.38s-5.35,1.19-8.48,1.19c-4.94,0-9.2-0.73-12.81-2.19c-3.6-1.46-6.58-3.49-8.94-6.11 c-2.36-2.61-4.12-5.73-5.27-9.35c-1.15-3.62-1.73-7.61-1.73-11.97c0-4.39,0.57-8.39,1.7-12c1.13-3.6,2.86-6.67,5.19-9.21 c2.32-2.54,5.24-4.5,8.75-5.89c3.51-1.39,7.65-2.08,12.4-2.08c4.25,0,8.02,0.65,11.32,1.95c3.3,1.3,6.07,3.17,8.32,5.62 c2.25,2.45,3.95,5.42,5.11,8.92c1.15,3.49,1.73,7.44,1.73,11.83l0.05,4.16h-39.88c0.07,2.56,0.47,4.83,1.19,6.81 c0.72,1.98,1.7,3.65,2.94,5c1.24,1.35,2.73,2.37,4.46,3.05c1.73,0.68,3.66,1.03,5.78,1.03c3.03,0,5.66-0.81,7.89-2.43 c2.23-1.62,3.91-4.14,5.03-7.56L595.66,181.05z M593.18,166.84c-0.11-4.57-1.19-8.11-3.24-10.59c-2.05-2.49-5.04-3.73-8.97-3.73 c-1.91,0-3.64,0.35-5.19,1.05c-1.55,0.7-2.88,1.68-4,2.94c-1.12,1.26-2,2.77-2.65,4.51c-0.65,1.75-1.03,3.68-1.13,5.81H593.18z"></path> <path class="st14" d="M658.18,199.91l-2.32-10.16c-0.76,1.73-1.79,3.32-3.11,4.78c-1.32,1.46-2.82,2.71-4.51,3.76 c-1.69,1.05-3.58,1.85-5.65,2.43c-2.07,0.58-4.24,0.86-6.51,0.86c-3.64,0-6.87-0.69-9.7-2.08c-2.83-1.39-5.23-3.36-7.21-5.92 c-1.98-2.56-3.49-5.65-4.51-9.27c-1.03-3.62-1.54-7.66-1.54-12.13c0-4.68,0.51-8.85,1.54-12.51c1.03-3.66,2.52-6.74,4.49-9.24 c1.96-2.5,4.35-4.4,7.16-5.7c2.81-1.3,6-1.95,9.56-1.95c2.3,0,4.45,0.26,6.43,0.78c1.98,0.52,3.76,1.23,5.32,2.11 c1.57,0.88,2.92,1.93,4.05,3.13c1.13,1.21,2.03,2.48,2.67,3.81v-30.85h15.4v78.13H658.18z M654.34,172.24 c0-3.39-0.34-6.24-1.03-8.56c-0.68-2.32-1.61-4.21-2.78-5.67c-1.17-1.46-2.54-2.51-4.11-3.16c-1.57-0.65-3.22-0.97-4.94-0.97 c-1.87,0-3.58,0.33-5.13,1c-1.55,0.67-2.87,1.73-3.97,3.19c-1.1,1.46-1.95,3.35-2.54,5.67c-0.59,2.32-0.89,5.12-0.89,8.4 c0,6.12,1.12,10.71,3.35,13.75c2.23,3.04,5.33,4.57,9.29,4.57c3.89,0,6.99-1.52,9.29-4.57 C653.19,182.84,654.34,178.29,654.34,172.24z"></path> <path class="st14" d="M712.05,199.91v-77.38h52.25v13.24h-35.99v21.99h28.04v13.02h-28.04v29.13H712.05z"></path> <path class="st14" d="M784.95,144.47v31.77c0,1.77,0.13,3.48,0.38,5.13c0.25,1.66,0.75,3.13,1.49,4.43s1.76,2.34,3.05,3.13 c1.3,0.79,2.99,1.19,5.08,1.19c1.69,0,3.33-0.41,4.92-1.24c1.58-0.83,2.98-2.04,4.19-3.62c1.21-1.58,2.18-3.55,2.92-5.89 c0.74-2.34,1.11-5.01,1.11-8v-26.91h15.4v55.44h-10.75l-2.65-12.91c-0.86,2.34-2.03,4.42-3.49,6.24c-1.46,1.82-3.13,3.35-5,4.59 c-1.87,1.24-3.88,2.19-6.02,2.84c-2.14,0.65-4.35,0.97-6.62,0.97c-3.89,0-7.1-0.7-9.62-2.11c-2.52-1.4-4.51-3.24-5.97-5.51 s-2.47-4.84-3.03-7.7c-0.56-2.86-0.84-5.75-0.84-8.67v-33.18H784.95z"></path> <path class="st14" d="M880.43,181.75c-0.18,2.31-0.66,4.63-1.43,6.97c-0.77,2.34-1.95,4.47-3.51,6.38 c-1.57,1.91-3.6,3.47-6.11,4.67s-5.59,1.81-9.27,1.81c-3.46,0-6.45-0.49-8.97-1.46c-2.52-0.97-4.59-2.39-6.21-4.24 c-1.62-1.85-2.83-4.14-3.62-6.86c-0.79-2.72-1.19-5.83-1.19-9.32v-26.8h-8.97v-8.43h5.4c2.38,0,4.03-0.63,4.97-1.89 c0.94-1.26,1.4-3.08,1.4-5.46v-10h12.43v17.35h16.8v8.43h-16.8v27.77c0,1.84,0.16,3.36,0.49,4.57c0.32,1.21,0.79,2.17,1.4,2.89 c0.61,0.72,1.35,1.23,2.22,1.54c0.86,0.31,1.82,0.46,2.86,0.46c1.19,0,2.23-0.27,3.13-0.81c0.9-0.54,1.66-1.31,2.27-2.3 c0.61-0.99,1.1-2.18,1.46-3.57c0.36-1.39,0.61-2.91,0.76-4.57L880.43,181.75z"></path> <path class="st14" d="M903.82,144.47v31.77c0,1.77,0.13,3.48,0.38,5.13c0.25,1.66,0.75,3.13,1.49,4.43s1.76,2.34,3.05,3.13 c1.3,0.79,2.99,1.19,5.08,1.19c1.69,0,3.33-0.41,4.92-1.24c1.58-0.83,2.98-2.04,4.19-3.62c1.21-1.58,2.18-3.55,2.92-5.89 c0.74-2.34,1.11-5.01,1.11-8v-26.91h15.4v55.44H931.6l-2.65-12.91c-0.86,2.34-2.03,4.42-3.49,6.24c-1.46,1.82-3.13,3.35-5,4.59 c-1.87,1.24-3.88,2.19-6.02,2.84c-2.14,0.65-4.35,0.97-6.62,0.97c-3.89,0-7.1-0.7-9.62-2.11c-2.52-1.4-4.51-3.24-5.97-5.51 s-2.47-4.84-3.03-7.7c-0.56-2.86-0.84-5.75-0.84-8.67v-33.18H903.82z"></path> <path class="st14" d="M956.56,199.91v-55.44h10.97l3.08,12.59c0.54-1.95,1.37-3.78,2.49-5.51c1.12-1.73,2.46-3.24,4.03-4.54 s3.31-2.32,5.24-3.08c1.93-0.76,3.97-1.13,6.13-1.13c3.06,0,5.67,0.41,7.81,1.24c2.14,0.83,3.92,1.95,5.32,3.38 c1.41,1.42,2.49,3.06,3.24,4.92c0.76,1.86,1.27,3.8,1.54,5.84c0.27,2.04,0.35,4.11,0.24,6.21c-0.11,2.11-0.32,4.1-0.65,5.97 l-12.27,1.19c0.11-2.23,0.14-4.39,0.08-6.46c-0.05-2.07-0.38-3.9-0.97-5.48c-0.59-1.58-1.54-2.85-2.84-3.81 c-1.3-0.95-3.15-1.43-5.57-1.43c-2.23,0-4.13,0.59-5.7,1.78c-1.57,1.19-2.86,2.72-3.86,4.59c-1.01,1.87-1.74,3.94-2.19,6.21 c-0.45,2.27-0.68,4.48-0.68,6.65v26.31H956.56z"></path> <path class="st14" d="M1053.23,181.05l10.81,3.89c-1.12,2.49-2.44,4.76-3.97,6.81c-1.53,2.05-3.3,3.81-5.3,5.27 c-2,1.46-4.26,2.59-6.78,3.38s-5.35,1.19-8.48,1.19c-4.94,0-9.2-0.73-12.81-2.19s-6.58-3.49-8.94-6.11 c-2.36-2.61-4.12-5.73-5.27-9.35c-1.15-3.62-1.73-7.61-1.73-11.97c0-4.39,0.57-8.39,1.7-12c1.13-3.6,2.86-6.67,5.19-9.21 c2.32-2.54,5.24-4.5,8.75-5.89c3.51-1.39,7.65-2.08,12.4-2.08c4.25,0,8.02,0.65,11.32,1.95s6.07,3.17,8.32,5.62 c2.25,2.45,3.95,5.42,5.11,8.92c1.15,3.49,1.73,7.44,1.73,11.83l0.05,4.16h-39.88c0.07,2.56,0.47,4.83,1.19,6.81 c0.72,1.98,1.7,3.65,2.95,5c1.24,1.35,2.73,2.37,4.46,3.05c1.73,0.68,3.66,1.03,5.78,1.03c3.03,0,5.66-0.81,7.89-2.43 c2.23-1.62,3.91-4.14,5.02-7.56L1053.23,181.05z M1050.74,166.84c-0.11-4.57-1.19-8.11-3.24-10.59c-2.05-2.49-5.04-3.73-8.97-3.73 c-1.91,0-3.64,0.35-5.19,1.05c-1.55,0.7-2.88,1.68-4,2.94c-1.12,1.26-2,2.77-2.65,4.51c-0.65,1.75-1.03,3.68-1.13,5.81H1050.74z"></path> <path class="st14" d="M1093.16,176.18c-1.44-0.36-2.95-0.76-4.54-1.19s-3.13-0.95-4.65-1.54s-2.95-1.31-4.32-2.13 c-1.37-0.83-2.58-1.82-3.62-2.97c-1.04-1.15-1.87-2.5-2.49-4.05c-0.61-1.55-0.92-3.35-0.92-5.4c0-2.56,0.54-4.84,1.62-6.84 c1.08-2,2.64-3.68,4.67-5.05c2.04-1.37,4.53-2.41,7.48-3.13c2.95-0.72,6.32-1.08,10.1-1.08c6.48,0,11.66,1.39,15.54,4.16 c3.87,2.77,6.55,6.94,8.02,12.48l-12.1,2.54c-0.72-3.17-1.98-5.48-3.78-6.92c-1.8-1.44-4.47-2.16-8-2.16 c-3.03,0-5.27,0.54-6.73,1.62c-1.46,1.08-2.19,2.56-2.19,4.43c0,1.12,0.25,2.05,0.76,2.81c0.5,0.76,1.28,1.43,2.32,2.03 c1.04,0.59,2.37,1.13,3.97,1.59c1.6,0.47,3.5,0.97,5.7,1.51c3.78,0.86,7.05,1.84,9.81,2.92c2.76,1.08,5.02,2.31,6.78,3.67 c1.76,1.37,3.07,2.91,3.92,4.62c0.85,1.71,1.27,3.67,1.27,5.86c0,2.74-0.56,5.2-1.67,7.38c-1.12,2.18-2.77,4.03-4.94,5.54 c-2.18,1.51-4.86,2.67-8.05,3.49c-3.19,0.81-6.84,1.22-10.94,1.22c-3.53,0-6.74-0.37-9.62-1.11c-2.88-0.74-5.4-1.85-7.54-3.32 c-2.14-1.48-3.88-3.33-5.21-5.57c-1.33-2.23-2.22-4.84-2.65-7.83l11.94-2.81c0.54,3.35,1.87,5.92,4,7.7 c2.13,1.78,5.21,2.67,9.24,2.67c3.67,0,6.35-0.62,8.02-1.86c1.67-1.24,2.51-2.91,2.51-5c0-0.86-0.22-1.67-0.65-2.4 c-0.43-0.74-1.18-1.43-2.24-2.08s-2.48-1.28-4.24-1.89C1097.99,177.46,1095.79,176.83,1093.16,176.18z"></path> <path class="st14" d="M1160.43,199.91v-77.38h52.25v13.24h-35.99v21.99h28.04v13.02h-28.04v29.13H1160.43z"></path> <path class="st14" d="M1273.48,199.26c-0.32,0.18-0.81,0.41-1.46,0.68c-0.65,0.27-1.39,0.53-2.22,0.78 c-0.83,0.25-1.71,0.46-2.65,0.62c-0.94,0.16-1.89,0.24-2.86,0.24c-1.73,0-3.27-0.2-4.62-0.59c-1.35-0.4-2.49-1.04-3.4-1.92 c-0.92-0.88-1.62-2.03-2.11-3.43c-0.49-1.41-0.73-3.13-0.73-5.19c0-1.51,0.16-3.62,0.49-6.32c-0.61,3.13-1.63,5.81-3.05,8.02 s-3.12,4.02-5.08,5.4c-1.96,1.39-4.17,2.4-6.62,3.05c-2.45,0.65-5.01,0.97-7.67,0.97c-2.88,0-5.45-0.38-7.7-1.13 c-2.25-0.76-4.16-1.82-5.73-3.19c-1.57-1.37-2.76-3.01-3.57-4.92c-0.81-1.91-1.22-4.03-1.22-6.38c0-3.49,0.99-6.33,2.97-8.51 c1.98-2.18,4.67-3.89,8.08-5.13s7.38-2.1,11.94-2.57c4.56-0.47,9.41-0.72,14.56-0.76v-4.97c0-1.66-0.2-3.16-0.59-4.51 c-0.4-1.35-1.03-2.49-1.89-3.4c-0.86-0.92-1.98-1.63-3.35-2.13c-1.37-0.5-3.04-0.76-5.03-0.76c-1.44,0-2.81,0.19-4.11,0.57 c-1.3,0.38-2.46,0.97-3.49,1.78c-1.03,0.81-1.87,1.86-2.54,3.13c-0.67,1.28-1.07,2.8-1.22,4.57l-12.21-1.46 c0.36-2.85,1.14-5.43,2.35-7.75c1.21-2.32,2.85-4.32,4.92-6c2.07-1.67,4.58-2.97,7.54-3.89c2.95-0.92,6.38-1.38,10.27-1.38 c8.36,0,14.56,1.94,18.62,5.81c4.05,3.87,6.08,9.79,6.08,17.75v21.02c0,1.62,0.26,2.84,0.78,3.65c0.52,0.81,1.38,1.22,2.57,1.22 c0.83,0,1.59-0.09,2.3-0.27c0.7-0.18,1.25-0.36,1.65-0.54V199.26z M1250.89,175.86c-3.24,0.14-6.22,0.38-8.94,0.7 s-5.05,0.83-7,1.51c-1.95,0.68-3.46,1.59-4.54,2.73s-1.62,2.59-1.62,4.35c0,0.94,0.15,1.82,0.46,2.65 c0.31,0.83,0.78,1.55,1.43,2.16c0.65,0.61,1.49,1.09,2.51,1.43c1.03,0.34,2.26,0.51,3.7,0.51c1.95,0,3.76-0.42,5.46-1.27 c1.69-0.85,3.17-1.97,4.43-3.38c1.26-1.41,2.26-3.03,3-4.86c0.74-1.84,1.11-3.75,1.11-5.73V175.86z"></path> <path class="st14" d="M1352.21,199.91v-33.23c0-2.31-0.17-4.24-0.51-5.81c-0.34-1.57-0.84-2.84-1.49-3.81s-1.44-1.68-2.38-2.11 c-0.94-0.43-2-0.65-3.19-0.65c-1.69,0-3.26,0.46-4.7,1.38c-1.44,0.92-2.7,2.17-3.78,3.76c-1.08,1.59-1.93,3.42-2.54,5.51 c-0.61,2.09-0.92,4.29-0.92,6.59v28.37h-15.45v-32.8c0-2.45-0.19-4.49-0.57-6.13c-0.38-1.64-0.91-2.95-1.59-3.94 c-0.68-0.99-1.49-1.69-2.4-2.11c-0.92-0.41-1.94-0.62-3.05-0.62c-1.55,0-3.04,0.45-4.46,1.35c-1.42,0.9-2.67,2.13-3.76,3.7 s-1.95,3.42-2.59,5.57c-0.65,2.14-0.97,4.48-0.97,7v27.99h-15.45v-55.44h10.81l2.65,12.81c0.54-1.44,1.32-3,2.35-4.67 c1.03-1.68,2.37-3.24,4.03-4.7c1.66-1.46,3.62-2.67,5.89-3.65s4.92-1.46,7.94-1.46c2.13,0,4.06,0.36,5.81,1.08 c1.75,0.72,3.27,1.76,4.57,3.11c1.3,1.35,2.32,2.97,3.08,4.86c0.76,1.89,1.22,4.01,1.4,6.35c0.61-2.13,1.56-4.12,2.84-6 c1.28-1.87,2.77-3.5,4.49-4.89c1.71-1.39,3.57-2.49,5.59-3.3s4.05-1.22,6.11-1.22c2.67,0,5.09,0.43,7.27,1.3 c2.18,0.86,4.04,2.22,5.59,4.05c1.55,1.84,2.75,4.18,3.59,7.02c0.85,2.85,1.27,6.27,1.27,10.27v34.47H1352.21z"></path> <path class="st14" d="M1381.33,136.74v-14.21h15.83v14.21H1381.33z M1381.55,199.91v-55.44H1397v55.44H1381.55z"></path> <path class="st14" d="M1411.75,199.91v-78.13h15.4v78.13H1411.75z"></path> <path class="st14" d="M1457.79,199.91l-23.24-55.44h16.7l13.4,41.55l12.64-41.55h15.89l-21.45,57.01 c-1.33,3.39-2.7,6.27-4.11,8.65c-1.4,2.38-2.9,4.31-4.48,5.81c-1.59,1.49-3.31,2.58-5.16,3.27c-1.86,0.68-3.9,1.03-6.13,1.03 c-1.62,0-3.17-0.2-4.65-0.59c-1.48-0.4-2.85-0.89-4.11-1.49c-1.26-0.59-2.4-1.23-3.4-1.92c-1.01-0.68-1.84-1.33-2.49-1.94 l3.62-7.73c1.04,0.61,2.27,1.17,3.67,1.67c1.41,0.5,2.92,0.76,4.54,0.76c1.87,0,3.48-0.56,4.81-1.68c1.33-1.12,2.41-2.88,3.24-5.3 L1457.79,199.91z"></path> </g> </g> </svg> 