<svg width="125" height="23" viewBox="0 0 125 23" fill="none" xmlns="http://www.w3.org/2000/svg">
<path d="M115.769 13.0801C115.769 12.4691 115.862 11.889 116.049 11.3396C116.242 10.7903 116.517 10.3027 116.874 9.87665C117.231 9.45065 117.69 9.11153 118.251 8.85929C118.818 8.60705 119.448 8.48093 120.139 8.48093C120.819 8.48093 121.434 8.60145 121.984 8.84248C122.54 9.0779 122.991 9.3974 123.336 9.80098C123.688 10.199 123.954 10.653 124.136 11.1631C124.323 11.6732 124.413 12.2085 124.408 12.769L124.374 13.5257H117.656C117.741 14.3385 118.016 14.9691 118.481 15.4175C118.946 15.8659 119.547 16.0901 120.284 16.0901C120.851 16.0901 121.335 15.964 121.738 15.7118C122.14 15.4595 122.392 15.1092 122.495 14.6608H124.357C124.204 15.6137 123.753 16.3564 123.005 16.8889C122.256 17.4214 121.332 17.6876 120.233 17.6876C119.314 17.6876 118.509 17.4718 117.818 17.0402C117.132 16.603 116.619 16.0397 116.279 15.3502C115.939 14.6608 115.769 13.9041 115.769 13.0801ZM117.741 12.0459H122.375C122.33 11.4237 122.112 10.922 121.721 10.5409C121.33 10.1541 120.802 9.96073 120.139 9.96073C119.51 9.96073 118.988 10.1429 118.575 10.5072C118.161 10.8716 117.883 11.3845 117.741 12.0459Z" fill="white"/>
<path d="M115.305 8.61548V10.2046H113.111V14.6944C113.111 15.1316 113.228 15.468 113.46 15.7034C113.698 15.9388 114.013 16.0565 114.404 16.0565C114.619 16.0565 114.92 16.0089 115.305 15.9136V17.5531C115.033 17.6428 114.667 17.6877 114.208 17.6877C113.29 17.6877 112.561 17.4494 112.023 16.973C111.484 16.4909 111.215 15.7819 111.215 14.8458V10.2046H109.608V8.61548H111.215V5.95016H113.111V8.61548H115.305Z" fill="white"/>
<path d="M106.729 17.5531V8.61543H108.625V17.5531H106.729ZM106.644 5.00002H108.744V7.11882H106.644V5.00002Z" fill="white"/>
<path d="M102.941 17.5531V5.00002H104.837V17.5531H102.941Z" fill="white"/>
<path d="M93.2689 17.5531V5.13461H101.423V6.89187H95.2927V10.0953H100.241V11.8526H95.2927V15.7791H101.61V17.5531H93.2689Z" fill="white"/>
<path d="M88.2303 17.6876C87.1079 17.6876 86.1924 17.3934 85.4838 16.8048C84.7809 16.2162 84.4067 15.4567 84.3614 14.5262H86.2236C86.2519 14.9354 86.4503 15.297 86.8188 15.6109C87.1929 15.9192 87.6634 16.0733 88.2303 16.0733C88.7235 16.0733 89.1231 15.9724 89.4293 15.7706C89.741 15.5632 89.8969 15.3026 89.8969 14.9887C89.8969 14.4506 89.5256 14.1002 88.783 13.9377L87.2865 13.593C86.9237 13.5145 86.6034 13.4164 86.3256 13.2987C86.0478 13.1754 85.7842 13.0156 85.5348 12.8194C85.2854 12.6233 85.0927 12.371 84.9566 12.0627C84.8262 11.7544 84.761 11.3985 84.761 10.9949C84.761 10.283 85.0643 9.68607 85.6709 9.20402C86.2774 8.72196 87.0711 8.48093 88.0517 8.48093C89.0211 8.48093 89.8346 8.73037 90.4921 9.22924C91.1554 9.72251 91.5437 10.3951 91.6571 11.2471H89.7949C89.7439 10.866 89.5511 10.5661 89.2167 10.3475C88.8879 10.1233 88.4996 10.0112 88.0517 10.0112C87.6379 10.0112 87.3006 10.1009 87.0399 10.2802C86.7848 10.4596 86.6572 10.6978 86.6572 10.9949C86.6572 11.4545 87.0115 11.7684 87.7201 11.9366L89.2167 12.2645C89.6135 12.3486 89.9564 12.4495 90.2456 12.5672C90.5347 12.6849 90.8068 12.8447 91.0619 13.0465C91.317 13.2426 91.5097 13.5005 91.6401 13.82C91.7705 14.1339 91.8356 14.5066 91.8356 14.9382C91.8356 15.723 91.5012 16.3788 90.8323 16.9057C90.169 17.427 89.3017 17.6876 88.2303 17.6876Z" fill="white"/>
<path d="M74.9607 13.0801C74.9607 12.4691 75.0542 11.889 75.2413 11.3396C75.434 10.7903 75.709 10.3027 76.0661 9.87665C76.4232 9.45065 76.8824 9.11153 77.4436 8.85929C78.0105 8.60705 78.6397 8.48093 79.3313 8.48093C80.0115 8.48093 80.6266 8.60145 81.1765 8.84248C81.732 9.0779 82.1827 9.3974 82.5285 9.80098C82.8799 10.199 83.1464 10.653 83.3278 11.1631C83.5148 11.6732 83.6055 12.2085 83.5999 12.769L83.5659 13.5257H76.8484C76.9334 14.3385 77.2083 14.9691 77.6732 15.4175C78.138 15.8659 78.7389 16.0901 79.4758 16.0901C80.0427 16.0901 80.5274 15.964 80.9299 15.7118C81.3324 15.4595 81.5846 15.1092 81.6867 14.6608H83.5488C83.3958 15.6137 82.9451 16.3564 82.1968 16.8889C81.4486 17.4214 80.5246 17.6876 79.4248 17.6876C78.5065 17.6876 77.7015 17.4718 77.0099 17.0402C76.324 16.603 75.811 16.0397 75.4709 15.3502C75.1307 14.6608 74.9607 13.9041 74.9607 13.0801ZM76.9334 12.0459H81.5676C81.5223 11.4237 81.304 10.922 80.9129 10.5409C80.5217 10.1541 79.9945 9.96073 79.3313 9.96073C78.7021 9.96073 78.1805 10.1429 77.7667 10.5072C77.3529 10.8716 77.0751 11.3845 76.9334 12.0459Z" fill="white"/>
<path d="M74.9054 10.3223C74.6333 10.255 74.3301 10.2214 73.9956 10.2214C73.2757 10.2214 72.6719 10.5577 72.1844 11.2303C71.6969 11.903 71.4532 12.8979 71.4532 14.2152V17.5531H69.557V8.61546H71.4532V10.3223C71.6572 9.79538 72.0285 9.35816 72.5671 9.01063C73.1056 8.6575 73.664 8.48093 74.2422 8.48093C74.3952 8.48093 74.5426 8.48934 74.6844 8.50616C74.8261 8.52297 74.8998 8.53138 74.9054 8.53138V10.3223Z" fill="white"/>
<path d="M67.6739 8.61533V17.553H65.7777V16.0395C65.4602 16.5552 65.0408 16.9588 64.5192 17.2503C63.9977 17.5418 63.4195 17.6875 62.7846 17.6875C61.8209 17.6875 61.0358 17.3988 60.4292 16.8215C59.8283 16.2385 59.5279 15.4678 59.5279 14.5093V8.61533H61.4241V14.0889C61.4241 14.655 61.5913 15.1175 61.9258 15.4762C62.2659 15.8293 62.7194 16.0059 63.2863 16.0059C64.0629 16.0059 64.6723 15.6976 65.1145 15.081C65.5566 14.4645 65.7777 13.6181 65.7777 12.5418V8.61533H67.6739Z" fill="white"/>
<path d="M58.3838 8.61548V10.2046H56.1899V14.6944C56.1899 15.1316 56.3062 15.468 56.5386 15.7034C56.7767 15.9388 57.0913 16.0565 57.4824 16.0565C57.6978 16.0565 57.9983 16.0089 58.3838 15.9136V17.5531C58.1117 17.6428 57.746 17.6877 57.2868 17.6877C56.3685 17.6877 55.6401 17.4494 55.1015 16.973C54.563 16.4909 54.2937 15.7819 54.2937 14.8458V10.2046H52.6867V8.61548H54.2937V5.95016H56.1899V8.61548H58.3838Z" fill="white"/>
<path d="M51.7131 8.61533V17.553H49.8169V16.0395C49.4995 16.5552 49.08 16.9588 48.5585 17.2503C48.0369 17.5418 47.4587 17.6875 46.8238 17.6875C45.8601 17.6875 45.075 17.3988 44.4685 16.8215C43.8676 16.2385 43.5671 15.4678 43.5671 14.5093V8.61533H45.4633V14.0889C45.4633 14.655 45.6306 15.1175 45.965 15.4762C46.3051 15.8293 46.7586 16.0059 47.3255 16.0059C48.1021 16.0059 48.7115 15.6976 49.1537 15.081C49.5959 14.4645 49.8169 13.6181 49.8169 12.5418V8.61533H51.7131Z" fill="white"/>
<path d="M35 17.5531V5.13461H43.2565V6.89187H37.0237V10.2382H42.0916V11.9871H37.0237V17.5531H35Z" fill="white"/>
<mask id="mask0_44_67" style="mask-type:alpha" maskUnits="userSpaceOnUse" x="0" y="0" width="28" height="23">
<path d="M27.0303 22.9365H10.4385L13.3086 19.4766C13.8983 18.7574 14.7635 18.3486 15.707 18.3486H27.0303V22.9365ZM27.0293 9.1748V13.7617H12.6201C11.2245 13.7618 9.96634 14.3836 9.12109 15.3555L7.58789 17.2217C6.99816 17.9409 6.11348 18.3486 5.16992 18.3486H0V13.7617H8.53125C8.59011 13.7617 8.64915 13.7615 8.70801 13.7422C9.94645 13.6256 11.0478 13.0034 11.8145 12.0898L13.3086 10.2822C13.8983 9.56315 14.7831 9.15527 15.7266 9.15527L27.0293 9.1748ZM27.0488 0V4.58691H12.6592C11.2245 4.58705 9.94676 5.20913 9.10156 6.2002C9.04266 6.27785 8.98371 6.35593 8.9248 6.43359L7.58789 8.06641C6.99816 8.7856 6.1135 9.19434 5.16992 9.19434H0V4.60645H8.53125C8.59009 4.60645 8.64917 4.587 8.70801 4.58691C9.96601 4.45086 11.0478 3.84901 11.8145 2.93555C11.8734 2.89667 11.9128 2.83761 11.9521 2.7793L13.3086 1.12695C13.8983 0.407998 14.7832 0 15.7266 0H27.0488Z" fill="white"/>
</mask>
<g mask="url(#mask0_44_67)">
<g filter="url(#filter0_i_44_67)">
<rect x="-5" y="-12" width="38" height="41" rx="12" fill="url(#paint0_linear_44_67)"/>
</g>
</g>
<defs>
<filter id="filter0_i_44_67" x="-5" y="-12" width="38" height="56" filterUnits="userSpaceOnUse" color-interpolation-filters="sRGB">
<feFlood flood-opacity="0" result="BackgroundImageFix"/>
<feBlend mode="normal" in="SourceGraphic" in2="BackgroundImageFix" result="shape"/>
<feColorMatrix in="SourceAlpha" type="matrix" values="0 0 0 0 0 0 0 0 0 0 0 0 0 0 0 0 0 0 127 0" result="hardAlpha"/>
<feOffset dy="15"/>
<feGaussianBlur stdDeviation="9"/>
<feComposite in2="hardAlpha" operator="arithmetic" k2="-1" k3="1"/>
<feColorMatrix type="matrix" values="0 0 0 0 1 0 0 0 0 1 0 0 0 0 1 0 0 0 0.55 0"/>
<feBlend mode="normal" in2="shape" result="effect1_innerShadow_44_67"/>
</filter>
<linearGradient id="paint0_linear_44_67" x1="-5" y1="8.5" x2="33" y2="8.5" gradientUnits="userSpaceOnUse">
<stop offset="0.2" stop-color="#6958E2"/>
<stop offset="1" stop-color="#D517C5"/>
</linearGradient>
</defs>
</svg>
