<svg width="351" height="101" viewBox="0 0 351 101" fill="none" xmlns="http://www.w3.org/2000/svg">
<path d="M42.7381 1.01227L3.77665 23.4988C1.44256 24.8485 0 27.3436 0 30.043V75.0285C0 77.7279 1.44256 80.2229 3.77665 81.5726L36.6026 100.524C38.2804 101.496 40.3792 100.283 40.3792 98.3447V44.97L8.75441 63.228V51.8176L46.5086 30.0182L84.2627 51.8176V63.228L52.6379 44.97V98.3447C52.6379 100.283 54.7367 101.496 56.4145 100.524L89.2405 81.5726C91.5808 80.2229 93.0171 77.7279 93.0171 75.0285V30.043C93.0171 27.3436 91.5746 24.8485 89.2405 23.4988L50.2914 1.01227C47.9511 -0.337422 45.0722 -0.337422 42.7381 1.01227ZM31.6248 60.1386V87.5348L8.7606 74.3351L31.6248 60.1386ZM61.4047 87.5348V60.1386L84.2689 74.3351L61.4047 87.5348ZM84.2689 41.7073L46.5148 19.9079L8.75441 41.7073V30.7364L46.5148 8.93705L84.2689 30.7364V41.7073Z" fill="url(#paint0_linear_329_5951)"/>
<path d="M112.929 31.7154V23.5801H145.272V31.7154H133.608V62.04H124.587V31.7154H112.923H112.929Z" fill="white"/>
<path d="M166.885 22.8487C178.029 22.6939 186.685 31.504 186.53 42.803C186.685 54.1021 178.029 62.9122 166.885 62.7574C155.741 62.9122 147.086 54.1021 147.24 42.803C147.086 31.504 155.741 22.6939 166.885 22.8487ZM166.885 31.2997C160.564 31.2997 156.261 36.2775 156.261 42.8092C156.261 49.341 160.564 54.3187 166.885 54.3187C173.206 54.3187 177.509 49.341 177.509 42.8092C177.509 36.2775 173.206 31.2997 166.885 31.2997Z" fill="white"/>
<path d="M206.02 23.5732C216.384 23.5732 222.501 29.2258 222.501 37.2063C222.501 45.1868 216.384 50.8394 206.02 50.8394H200.838V62.0332H191.923V23.5732H206.02ZM206.02 31.6095H200.838V42.8032H206.02C211.202 42.8032 213.586 40.9397 213.586 37.2063C213.586 33.473 211.202 31.6095 206.02 31.6095Z" fill="white"/>
<path d="M258.373 23.263C269.102 23.0587 277.498 31.8688 277.343 42.8025C277.498 53.6867 269.102 62.4968 258.373 62.3421C247.538 62.4968 239.248 53.6867 239.403 42.8025C239.248 31.8626 247.538 23.0525 258.373 23.263ZM258.373 26.4762C249.198 26.4762 242.876 33.6271 242.876 42.8025C242.876 51.9779 249.198 59.1288 258.373 59.1288C267.548 59.1288 273.87 51.9779 273.87 42.8025C273.87 33.6271 267.548 26.4762 258.373 26.4762Z" fill="white"/>
<path d="M312.075 56.0208V23.9873H315.499V61.6176H312.181L288.289 29.5842V61.6176H284.865V23.9873H288.233L312.075 56.0208Z" fill="white"/>
<path d="M350.48 27.1023H328.607V41.1502H348.357V44.3139H328.607V58.4671H351V61.6308H325.133V24.0005H350.48V27.1085V27.1023Z" fill="white"/>
<path d="M150.23 82.2404H112.928V79.8506H150.23" fill="url(#paint1_linear_329_5951)"/>
<path d="M350.999 82.2404H313.697V79.8506H350.999" fill="url(#paint2_linear_329_5951)"/>
<path d="M170.154 76.9417H163.833V80.2478H169.461V82.4023H163.833V87.2996H161.443V74.7871H170.154V76.9417Z" fill="url(#paint3_linear_329_5951)"/>
<path d="M182.103 74.7871H184.492V81.6903C184.492 84.1483 185.458 85.2998 187.427 85.2998C189.396 85.2998 190.38 84.1483 190.38 81.6903V74.7871H192.751V81.6903C192.751 85.5041 190.801 87.5411 187.427 87.5411C184.053 87.5411 182.103 85.5041 182.103 81.6903V74.7871Z" fill="url(#paint4_linear_329_5951)"/>
<path d="M204.558 74.7871H215.002V76.9417H210.984V87.2996H208.594V76.9417H204.558V74.7871Z" fill="url(#paint5_linear_329_5951)"/>
<path d="M226.809 74.7871H229.199V81.6903C229.199 84.1483 230.165 85.2998 232.134 85.2998C234.103 85.2998 235.081 84.1483 235.081 81.6903V74.7871H237.452V81.6903C237.452 85.5041 235.502 87.5411 232.128 87.5411C228.753 87.5411 226.803 85.5041 226.803 81.6903V74.7871H226.809Z" fill="url(#paint6_linear_329_5951)"/>
<path d="M257.779 87.2996L255.067 83.1143C254.776 83.1329 254.541 83.1453 254.373 83.1453H252.374V87.2996H250.002V74.7871H254.373C257.611 74.7871 259.661 76.4464 259.661 78.991C259.661 80.6193 258.813 81.8885 257.302 82.5695L260.472 87.2996H257.779ZM254.367 81.0774C256.318 81.0774 257.283 80.3345 257.283 78.991C257.283 77.6475 256.318 76.9231 254.367 76.9231H252.367V81.0774H254.367Z" fill="url(#paint7_linear_329_5951)"/>
<path d="M280.791 76.9231H274.383V79.9754H280.098V82.0928H274.383V85.145H280.964V87.2996H272.012V74.7871H280.797V76.9231H280.791Z" fill="url(#paint8_linear_329_5951)"/>
<path d="M294.437 83.7391C294.963 84.7049 296.115 85.4169 297.607 85.4169C299.099 85.4169 300.114 84.804 300.114 83.8753C300.114 83.0085 299.47 82.5504 297.823 82.1479L296.282 81.7393C294.028 81.1635 292.908 80.0119 292.908 78.297C292.908 76.1238 294.771 74.5513 297.539 74.5513C299.693 74.5513 301.52 75.5357 302.318 77.0959L300.368 78.1484C299.891 77.2692 298.777 76.6749 297.501 76.6749C296.226 76.6749 295.279 77.3002 295.279 78.1979C295.279 79.009 295.923 79.4547 297.57 79.8572L299.111 80.2658C301.365 80.8416 302.485 82.0117 302.485 83.7762C302.485 85.9617 300.467 87.5405 297.57 87.5405C295.198 87.5405 293.298 86.4694 292.468 84.8287L294.437 83.7453V83.7391Z" fill="url(#paint9_linear_329_5951)"/>
<defs>
<linearGradient id="paint0_linear_329_5951" x1="46.5148" y1="107.495" x2="46.5148" y2="12.5465" gradientUnits="userSpaceOnUse">
<stop stop-color="#E5E4E2"/>
<stop offset="0.53" stop-color="#4DAF50"/>
<stop offset="1" stop-color="#1C5F2B"/>
</linearGradient>
<linearGradient id="paint1_linear_329_5951" x1="112.928" y1="81.0455" x2="348.411" y2="81.0455" gradientUnits="userSpaceOnUse">
<stop stop-color="#6FAB8F"/>
<stop offset="1" stop-color="#99C984"/>
</linearGradient>
<linearGradient id="paint2_linear_329_5951" x1="112.921" y1="-0.00399271" x2="348.405" y2="-0.00399271" gradientUnits="userSpaceOnUse">
<stop stop-color="#6FAB8F"/>
<stop offset="1" stop-color="#99C984"/>
</linearGradient>
<linearGradient id="paint3_linear_329_5951" x1="112.922" y1="81.0464" x2="348.406" y2="81.0464" gradientUnits="userSpaceOnUse">
<stop stop-color="#1C5F2B"/>
<stop offset="1" stop-color="#4DAF50"/>
</linearGradient>
<linearGradient id="paint4_linear_329_5951" x1="112.922" y1="81.1641" x2="348.405" y2="81.1641" gradientUnits="userSpaceOnUse">
<stop stop-color="#1C5F2B"/>
<stop offset="1" stop-color="#4DAF50"/>
</linearGradient>
<linearGradient id="paint5_linear_329_5951" x1="112.921" y1="-0.00300567" x2="348.405" y2="-0.00300567" gradientUnits="userSpaceOnUse">
<stop stop-color="#1C5F2B"/>
<stop offset="1" stop-color="#4DAF50"/>
</linearGradient>
<linearGradient id="paint6_linear_329_5951" x1="112.922" y1="81.1641" x2="348.405" y2="81.1641" gradientUnits="userSpaceOnUse">
<stop stop-color="#1C5F2B"/>
<stop offset="1" stop-color="#4DAF50"/>
</linearGradient>
<linearGradient id="paint7_linear_329_5951" x1="112.922" y1="-0.00300567" x2="348.406" y2="-0.00300567" gradientUnits="userSpaceOnUse">
<stop stop-color="#1C5F2B"/>
<stop offset="1" stop-color="#4DAF50"/>
</linearGradient>
<linearGradient id="paint8_linear_329_5951" x1="112.922" y1="-0.00300567" x2="348.406" y2="-0.00300567" gradientUnits="userSpaceOnUse">
<stop stop-color="#1C5F2B"/>
<stop offset="1" stop-color="#4DAF50"/>
</linearGradient>
<linearGradient id="paint9_linear_329_5951" x1="112.922" y1="-0.00358675" x2="348.406" y2="-0.00358675" gradientUnits="userSpaceOnUse">
<stop stop-color="#1C5F2B"/>
<stop offset="1" stop-color="#4DAF50"/>
</linearGradient>
</defs>
</svg>
