<svg xmlns="http://www.w3.org/2000/svg" viewBox="0 0 900 500" font-family="Inter, system-ui, sans-serif">
  <defs><linearGradient id="bg" x1="0" x2="0" y1="0" y2="1"><stop offset="0%" stop-color="#0F1422"/><stop offset="100%" stop-color="#070B14"/></linearGradient></defs>
  <rect width="900" height="500" fill="url(#bg)"/>
  <text x="450" y="40" fill="#F0B429" font-size="22" font-weight="700" text-anchor="middle">Equity Curve — What Discipline Looks Like</text>
  <text x="450" y="62" fill="#9AA0A8" font-size="13" text-anchor="middle">100 trades · 55% win rate · +1.5R avg win / -1R avg loss · realistic Monte Carlo simulation</text>
  <g transform="translate(60, 110)">
    <line x1="0" y1="300" x2="780" y2="300" stroke="rgba(255,255,255,.1)"/>
    <line x1="0" y1="200" x2="780" y2="200" stroke="rgba(255,255,255,.1)"/>
    <line x1="0" y1="100" x2="780" y2="100" stroke="rgba(255,255,255,.1)"/>
    <text x="-10" y="100" fill="#9AA0A8" font-size="10" text-anchor="end">+30R</text>
    <text x="-10" y="200" fill="#9AA0A8" font-size="10" text-anchor="end">+15R</text>
    <text x="-10" y="300" fill="#9AA0A8" font-size="10" text-anchor="end">0R</text>
    <path d="M 0 300 L 40 290 L 60 310 L 100 280 L 130 270 L 160 290 L 200 260 L 240 240 L 280 280 L 320 220 L 360 200 L 400 230 L 450 190 L 500 170 L 550 200 L 600 150 L 650 120 L 720 90 L 780 70" fill="none" stroke="#10B981" stroke-width="2.5"/>
    <g transform="translate(250, 250)">
      <rect width="180" height="55" rx="8" fill="rgba(239,68,68,.08)" stroke="rgba(239,68,68,.4)"/>
      <text x="90" y="22" fill="#EF4444" font-size="11" font-weight="700" text-anchor="middle">drawdown -7R</text>
      <text x="90" y="40" fill="#9AA0A8" font-size="10" text-anchor="middle">trades 28-44</text>
    </g>
    <text x="0" y="335" fill="#9AA0A8" font-size="11">trade #</text>
    <text x="780" y="335" fill="#9AA0A8" font-size="11" text-anchor="end">100</text>
  </g>
  <g transform="translate(60, 410)">
    <rect width="780" height="80" rx="10" fill="rgba(16,185,129,.05)" stroke="rgba(16,185,129,.3)"/>
    <text x="20" y="28" fill="#10B981" font-size="13" font-weight="700">What you survive</text>
    <text x="20" y="50" fill="#9AA0A8" font-size="11">100 trades · max DD -7R (typical · within sigma) · ending +28R · CAGR ~33% on 1% risk per trade</text>
    <text x="20" y="68" fill="#9AA0A8" font-size="11">Most quit during the trade 28-44 drawdown — that's where edge gets tested</text>
  </g>
</svg>
