<svg xmlns="http://www.w3.org/2000/svg" viewBox="0 0 900 500" font-family="Inter, system-ui, sans-serif">
  <defs><linearGradient id="bg" x1="0" x2="0" y1="0" y2="1"><stop offset="0%" stop-color="#0F1422"/><stop offset="100%" stop-color="#070B14"/></linearGradient></defs>
  <rect width="900" height="500" fill="url(#bg)"/>
  <text x="450" y="40" fill="#F0B429" font-size="22" font-weight="700" text-anchor="middle">R-Multiples Journal Template</text>
  <text x="450" y="62" fill="#9AA0A8" font-size="13" text-anchor="middle">Track every trade in R units · review weekly · expectancy emerges from the data, not your gut</text>
  <g transform="translate(60, 110)" font-size="12" font-family="JetBrains Mono, monospace">
    <rect width="780" height="320" rx="12" fill="rgba(255,255,255,.025)" stroke="rgba(255,255,255,.1)"/>
    <line x1="0" y1="40" x2="780" y2="40" stroke="rgba(255,255,255,.1)"/>
    <g font-weight="700" font-family="Inter">
      <text x="20" y="28" fill="#F0B429">date</text>
      <text x="100" y="28" fill="#F0B429">setup</text>
      <text x="220" y="28" fill="#F0B429">sym</text>
      <text x="290" y="28" fill="#F0B429">entry</text>
      <text x="380" y="28" fill="#F0B429">stop</text>
      <text x="460" y="28" fill="#F0B429">tgt</text>
      <text x="540" y="28" fill="#F0B429">size</text>
      <text x="620" y="28" fill="#F0B429">R-out</text>
      <text x="700" y="28" fill="#F0B429">note</text>
    </g>
    <g fill="#9AA0A8" font-size="11">
      <text x="20" y="70">5/12</text><text x="100" y="70">Spring</text><text x="220" y="70">NQ</text><text x="290" y="70">21450</text><text x="380" y="70">21420</text><text x="460" y="70">21540</text><text x="540" y="70">2</text><text x="620" y="70" fill="#10B981">+2.8R</text><text x="700" y="70">clean</text>
      <text x="20" y="98">5/13</text><text x="100" y="98">UTAD</text><text x="220" y="98">ES</text><text x="290" y="98">5895</text><text x="380" y="98">5905</text><text x="460" y="98">5875</text><text x="540" y="98">4</text><text x="620" y="98" fill="#EF4444">-1R</text><text x="700" y="98">stop hit</text>
      <text x="20" y="126">5/14</text><text x="100" y="126">VPA-abs</text><text x="220" y="126">NQ</text><text x="290" y="126">21380</text><text x="380" y="126">21360</text><text x="460" y="126">21450</text><text x="540" y="126">2</text><text x="620" y="126" fill="#10B981">+3.5R</text><text x="700" y="126">trailed</text>
      <text x="20" y="154">5/15</text><text x="100" y="154">FOMC</text><text x="220" y="154">CL</text><text x="290" y="154">62.10</text><text x="380" y="154">62.50</text><text x="460" y="154">61.50</text><text x="540" y="154">5</text><text x="620" y="154" fill="#EF4444">-1.2R</text><text x="700" y="154">news vol</text>
      <text x="20" y="182">5/16</text><text x="100" y="182">Spring</text><text x="220" y="182">GC</text><text x="290" y="182">2390</text><text x="380" y="182">2382</text><text x="460" y="182">2410</text><text x="540" y="182">3</text><text x="620" y="182" fill="#10B981">+2.5R</text><text x="700" y="182">target hit</text>
      <text x="20" y="210">5/17</text><text x="100" y="210">CVD-div</text><text x="220" y="210">NQ</text><text x="290" y="210">21620</text><text x="380" y="210">21640</text><text x="460" y="210">21570</text><text x="540" y="210">2</text><text x="620" y="210" fill="#10B981">+2.5R</text><text x="700" y="210">5min</text>
    </g>
    <line x1="0" y1="240" x2="780" y2="240" stroke="rgba(255,255,255,.1)"/>
    <text x="20" y="262" fill="#fff" font-size="11" font-family="Inter" font-weight="700">Week summary</text>
    <text x="20" y="282" fill="#9AA0A8" font-size="11" font-family="Inter">6 trades · 4 winners (67%) · avg win +2.83R · avg loss -1.10R · total +9.1R · expectancy +1.52R/trade</text>
  </g>
</svg>
