<svg xmlns="http://www.w3.org/2000/svg" viewBox="0 0 900 500" font-family="Inter, system-ui, sans-serif">
  <defs><linearGradient id="bg" x1="0" x2="0" y1="0" y2="1"><stop offset="0%" stop-color="#0F1422"/><stop offset="100%" stop-color="#070B14"/></linearGradient></defs>
  <rect width="900" height="500" fill="url(#bg)"/>
  <text x="450" y="40" fill="#F0B429" font-size="22" font-weight="700" text-anchor="middle">Monte Carlo — 1,000 Random Equity Curves</text>
  <text x="450" y="62" fill="#9AA0A8" font-size="13" text-anchor="middle">Same edge (55% win rate, 1.5R/1R) · 1,000 random shufflings · the range of possible outcomes</text>
  <g transform="translate(60, 110)">
    <line x1="0" y1="300" x2="780" y2="300" stroke="rgba(255,255,255,.15)"/>
    <line x1="0" y1="150" x2="780" y2="150" stroke="rgba(255,255,255,.1)"/>
    <text x="-10" y="150" fill="#9AA0A8" font-size="10" text-anchor="end">+30R</text>
    <text x="-10" y="300" fill="#9AA0A8" font-size="10" text-anchor="end">0R</text>
    <g opacity=".15">
      <path d="M 0 300 L 200 250 L 400 280 L 600 200 L 780 100" fill="none" stroke="#10B981" stroke-width="1"/>
      <path d="M 0 300 L 200 320 L 400 250 L 600 230 L 780 80" fill="none" stroke="#10B981" stroke-width="1"/>
      <path d="M 0 300 L 200 280 L 400 220 L 600 240 L 780 110" fill="none" stroke="#10B981" stroke-width="1"/>
      <path d="M 0 300 L 200 260 L 400 290 L 600 180 L 780 120" fill="none" stroke="#10B981" stroke-width="1"/>
      <path d="M 0 300 L 200 290 L 400 270 L 600 220 L 780 90" fill="none" stroke="#10B981" stroke-width="1"/>
      <path d="M 0 300 L 200 240 L 400 200 L 600 250 L 780 140" fill="none" stroke="#10B981" stroke-width="1"/>
      <path d="M 0 300 L 200 270 L 400 240 L 600 210 L 780 130" fill="none" stroke="#10B981" stroke-width="1"/>
    </g>
    <path d="M 0 300 L 200 270 L 400 250 L 600 220 L 780 130" fill="none" stroke="#10B981" stroke-width="3"/>
    <path d="M 0 300 L 200 320 L 400 295 L 600 290 L 780 250" fill="none" stroke="#EF4444" stroke-width="2" stroke-dasharray="4,3"/>
    <path d="M 0 300 L 200 235 L 400 195 L 600 150 L 780 50" fill="none" stroke="#F0B429" stroke-width="2" stroke-dasharray="4,3"/>
    <g font-size="11" font-weight="700" text-anchor="end">
      <text x="775" y="125" fill="#10B981">median +21R</text>
      <text x="775" y="45" fill="#F0B429">95th +35R</text>
      <text x="775" y="245" fill="#EF4444">5th +6R</text>
    </g>
  </g>
  <g transform="translate(60, 430)">
    <rect width="780" height="60" rx="10" fill="rgba(255,255,255,.025)" stroke="rgba(255,255,255,.08)"/>
    <text x="20" y="26" fill="#F0B429" font-size="12" font-weight="700">100 trades later</text>
    <text x="20" y="46" fill="#9AA0A8" font-size="11">Same skill · same edge · still 95% confidence range of +6R to +35R · 5% chance below +6R · plan for variance</text>
  </g>
</svg>
