<svg xmlns="http://www.w3.org/2000/svg" viewBox="0 0 900 500" font-family="Inter, system-ui, sans-serif">
  <defs><linearGradient id="bg" x1="0" x2="0" y1="0" y2="1"><stop offset="0%" stop-color="#0F1422"/><stop offset="100%" stop-color="#070B14"/></linearGradient></defs>
  <rect width="900" height="500" fill="url(#bg)"/>
  <text x="450" y="40" fill="#F0B429" font-size="22" font-weight="700" text-anchor="middle">Psychological Drawdown Limit (PDL)</text>
  <text x="450" y="62" fill="#9AA0A8" font-size="13" text-anchor="middle">The drawdown at which YOU stop following your system · find this number BEFORE you hit it</text>
  <g transform="translate(60, 110)">
    <line x1="0" y1="280" x2="780" y2="280" stroke="rgba(255,255,255,.15)"/>
    <path d="M 30 270 L 100 250 L 170 200 L 240 230 L 310 180 L 380 220 L 440 270 L 500 290 L 560 320 L 620 350 L 700 380" fill="none" stroke="#fff" stroke-width="2.5"/>
    <line x1="0" y1="320" x2="780" y2="320" stroke="#F0B429" stroke-width="1.5" stroke-dasharray="4,3"/>
    <text x="-10" y="324" fill="#F0B429" font-size="10" text-anchor="end">PDL -10%</text>
    <line x1="0" y1="370" x2="780" y2="370" stroke="#EF4444" stroke-width="1.5" stroke-dasharray="4,3"/>
    <text x="-10" y="374" fill="#EF4444" font-size="10" text-anchor="end">tilt -15%</text>
    <circle cx="560" cy="320" r="8" fill="#F0B429"/>
    <text x="560" y="305" fill="#F0B429" font-size="11" font-weight="700" text-anchor="middle">PDL reached · STOP</text>
    <circle cx="700" cy="380" r="8" fill="#EF4444"/>
    <text x="700" y="395" fill="#EF4444" font-size="11" font-weight="700" text-anchor="middle">if you didn't stop · revenge</text>
  </g>
  <g transform="translate(60, 430)">
    <rect width="780" height="60" rx="10" fill="rgba(240,180,41,.06)" stroke="rgba(240,180,41,.3)"/>
    <text x="20" y="26" fill="#F0B429" font-size="13" font-weight="700">The rule</text>
    <text x="20" y="46" fill="#9AA0A8" font-size="11">Set PDL at 50% of your max acceptable drawdown · stop trading · review for 1 week · come back smaller</text>
  </g>
</svg>
